<svg width="48" height="48" viewBox="0 0 48 48" fill="none" xmlns="http://www.w3.org/2000/svg">
<path fill-rule="evenodd" clip-rule="evenodd" d="M24 0C10.7452 0 0 10.7452 0 24C0 37.2548 10.7452 48 24 48C37.2548 48 48 37.2548 48 24C48 10.7452 37.2548 0 24 0ZM12 16.5C12 15.125 13.08 14 14.4 14H33.6C34.92 14 36 15.125 36 16.5V31.5C36 32.875 34.92 34 33.6 34H14.4C13.08 34 12 32.875 12 31.5V16.5ZM25.272 24.425L33.12 19.3125C33.42 19.1125 33.6 18.775 33.6 18.4125C33.6 17.575 32.724 17.075 32.04 17.5125L24 22.75L15.96 17.5125C15.276 17.075 14.4 17.575 14.4 18.4125C14.4 18.775 14.58 19.1125 14.88 19.3125L22.728 24.425C23.508 24.9375 24.492 24.9375 25.272 24.425Z" fill="#5236FF"/>
</svg>
