<svg width="895" height="358" viewBox="0 0 895 358" fill="none" xmlns="http://www.w3.org/2000/svg">
<path opacity="0.5" d="M629.004 20.5284H627.004V22.5284H629.004V20.5284ZM629.004 2.27272V0.272724H627.004V2.27272H629.004ZM715.016 2.27272H717.016V0.272724H715.016V2.27272ZM715.016 20.5284V22.5284H717.016V20.5284H715.016ZM682.953 20.5284V18.5284H680.953V20.5284H682.953ZM682.953 107V109H684.953V107H682.953ZM661.067 107H659.067V109H661.067V107ZM661.067 20.5284H663.067V18.5284H661.067V20.5284ZM631.004 20.5284V2.27272H627.004V20.5284H631.004ZM629.004 4.27272H715.016V0.272724H629.004V4.27272ZM713.016 2.27272V20.5284H717.016V2.27272H713.016ZM715.016 18.5284H682.953V22.5284H715.016V18.5284ZM680.953 20.5284V107H684.953V20.5284H680.953ZM682.953 105H661.067V109H682.953V105ZM663.067 107V20.5284H659.067V107H663.067ZM661.067 18.5284H629.004V22.5284H661.067V18.5284ZM750.555 61.5909L748.555 61.5775V61.5909H750.555ZM750.555 107V109H752.555V107H750.555ZM728.771 107H726.771V109H728.771V107ZM728.771 2.27272V0.272724H726.771V2.27272H728.771ZM749.942 2.27272H751.942V0.272724H749.942V2.27272ZM749.942 42.3125H747.942V44.3125H749.942V42.3125ZM750.862 42.3125V44.3125H752.229L752.726 43.0387L750.862 42.3125ZM759.453 31.4204L760.566 33.0823L760.569 33.0801L759.453 31.4204ZM794.072 35.3068L792.621 36.6828L794.072 35.3068ZM801.487 56.9886L799.487 56.9812V56.9886H801.487ZM801.487 107V109H803.487V107H801.487ZM779.703 107H777.703V109H779.703V107ZM779.703 60.875L777.703 60.8609V60.875H779.703ZM776.021 49.5739L774.543 50.9211L774.552 50.9312L776.021 49.5739ZM754.8 49.7784L756.214 51.1926V51.1926L754.8 49.7784ZM748.555 61.5909V107H752.555V61.5909H748.555ZM750.555 105H728.771V109H750.555V105ZM730.771 107V2.27272H726.771V107H730.771ZM728.771 4.27272H749.942V0.272724H728.771V4.27272ZM747.942 2.27272V42.3125H751.942V2.27272H747.942ZM749.942 44.3125H750.862V40.3125H749.942V44.3125ZM752.726 43.0387C754.392 38.7616 757.005 35.4668 760.566 33.0823L758.34 29.7586C754.061 32.6241 750.946 36.5906 748.999 41.5863L752.726 43.0387ZM760.569 33.0801C764.119 30.693 768.665 29.4318 774.334 29.4318V25.4318C768.071 25.4318 762.696 26.8298 758.337 29.7608L760.569 33.0801ZM774.334 29.4318C782.046 29.4318 788.073 31.8851 792.621 36.6828L795.524 33.9308C790.118 28.2285 782.986 25.4318 774.334 25.4318V29.4318ZM792.621 36.6828C797.155 41.4654 799.52 48.1451 799.487 56.9812L803.487 56.996C803.523 47.4231 800.944 39.6483 795.524 33.9308L792.621 36.6828ZM799.487 56.9886V107H803.487V56.9886H799.487ZM801.487 105H779.703V109H801.487V105ZM781.703 107V60.875H777.703V107H781.703ZM781.703 60.8891C781.74 55.7072 780.422 51.3896 777.49 48.2165L774.552 50.9312C776.598 53.1445 777.735 56.361 777.703 60.8609L781.703 60.8891ZM777.5 48.2267C774.586 45.0294 770.555 43.5341 765.692 43.5341V47.5341C769.693 47.5341 772.548 48.7319 774.543 50.9211L777.5 48.2267ZM765.692 43.5341C760.792 43.5341 756.632 45.1176 753.385 48.3642L756.214 51.1926C758.626 48.7802 761.728 47.5341 765.692 47.5341V43.5341ZM753.385 48.3642C750.121 51.6291 748.592 56.1286 748.555 61.5775L752.555 61.6043C752.587 56.8941 753.888 53.5186 756.214 51.1926L753.385 48.3642ZM833.614 103.625L832.627 105.365L832.635 105.369L833.614 103.625ZM820.165 89.6136L818.388 90.5319L818.39 90.536L820.165 89.6136ZM820.165 46.8125L818.386 45.8983L820.165 46.8125ZM833.409 32.5454L832.386 30.8269L832.382 30.8296L833.409 32.5454ZM872.273 31.8295L871.339 33.5984L871.344 33.6008L872.273 31.8295ZM885.568 45.125L883.817 46.0912L883.819 46.0954L885.568 45.125ZM890.477 73.3011V75.3011H892.477V73.3011H890.477ZM836.989 73.3011V71.3011H834.989V73.3011H836.989ZM841.795 87.2102L840.345 88.5873L841.795 87.2102ZM864.244 89.9716L863.245 88.2392L864.244 89.9716ZM869.869 83.1705L870.001 81.1748L868.503 81.0759L867.99 82.487L869.869 83.1705ZM890.017 84.5L891.974 84.9116L892.448 82.6561L890.149 82.5043L890.017 84.5ZM878.358 101.989L879.504 103.628L878.358 101.989ZM836.989 59.8011L834.991 59.6944L834.879 61.8011H836.989V59.8011ZM869.972 59.8011V61.8011H871.986L871.972 59.7865L869.972 59.8011ZM865.472 48.2443L864.041 49.6424L865.472 48.2443ZM842 48.3977L840.578 46.9913L842 48.3977ZM854.426 106.534C846.654 106.534 840.068 104.955 834.593 101.881L832.635 105.369C838.818 108.841 846.107 110.534 854.426 110.534V106.534ZM834.6 101.885C829.112 98.7721 824.9 94.3879 821.939 88.6912L818.39 90.536C821.702 96.9075 826.456 101.864 832.627 105.365L834.6 101.885ZM821.942 88.6953C818.98 82.9653 817.46 76.117 817.46 68.0852H813.46C813.46 76.6216 815.077 84.1256 818.388 90.5319L821.942 88.6953ZM817.46 68.0852C817.46 60.2673 818.976 53.5 821.944 47.7267L818.386 45.8983C815.08 52.3295 813.46 59.744 813.46 68.0852H817.46ZM821.944 47.7267C824.915 41.9447 829.075 37.4719 834.437 34.2613L832.382 30.8296C826.357 34.4372 821.687 39.4757 818.386 45.8983L821.944 47.7267ZM834.432 34.264C839.804 31.0663 846.155 29.4318 853.557 29.4318V25.4318C845.549 25.4318 838.468 27.2065 832.386 30.8269L834.432 34.264ZM853.557 29.4318C860.186 29.4318 866.099 30.8334 871.339 33.5984L873.206 30.0606C867.333 26.9621 860.769 25.4318 853.557 25.4318V29.4318ZM871.344 33.6008C876.562 36.3371 880.719 40.4762 883.817 46.0912L887.319 44.1588C883.872 37.9102 879.165 33.1856 873.202 30.0583L871.344 33.6008ZM883.819 46.0954C886.883 51.6164 888.477 58.6552 888.477 67.3182H892.477C892.477 58.1857 890.799 50.4291 887.317 44.1546L883.819 46.0954ZM888.477 67.3182V73.3011H892.477V67.3182H888.477ZM890.477 71.3011H836.989V75.3011H890.477V71.3011ZM834.989 73.3011V73.3523H838.989V73.3011H834.989ZM834.989 73.3523C834.989 79.5892 836.702 84.7507 840.345 88.5873L843.246 85.8331C840.48 82.9198 838.989 78.8426 838.989 73.3523H834.989ZM840.345 88.5873C843.992 92.4287 848.884 94.2727 854.784 94.2727V90.2727C849.775 90.2727 846.008 88.7417 843.246 85.8331L840.345 88.5873ZM854.784 94.2727C858.716 94.2727 862.228 93.4438 865.244 91.704L863.245 88.2392C860.942 89.5676 858.147 90.2727 854.784 90.2727V94.2727ZM865.244 91.704C868.328 89.9247 870.504 87.2771 871.749 83.8539L867.99 82.487C867.053 85.0638 865.479 86.9503 863.245 88.2392L865.244 91.704ZM869.738 85.1661L889.885 86.4957L890.149 82.5043L870.001 81.1748L869.738 85.1661ZM888.06 84.0884C886.633 90.875 883.044 96.2705 877.212 100.35L879.504 103.628C886.15 98.9795 890.333 92.7159 891.974 84.9116L888.06 84.0884ZM877.212 100.35C871.391 104.421 863.845 106.534 854.426 106.534V110.534C864.439 110.534 872.847 108.284 879.504 103.628L877.212 100.35ZM836.989 61.8011H869.972V57.8011H836.989V61.8011ZM871.972 59.7865C871.934 54.6555 870.267 50.2893 866.902 46.8463L864.041 49.6424C866.608 52.2676 867.941 55.6058 867.972 59.8157L871.972 59.7865ZM866.902 46.8463C863.514 43.3805 859.123 41.6932 853.915 41.6932V45.6932C858.184 45.6932 861.497 47.0399 864.041 49.6424L866.902 46.8463ZM853.915 41.6932C848.597 41.6932 844.094 43.4362 840.578 46.9913L843.422 49.8042C846.11 47.0865 849.551 45.6932 853.915 45.6932V41.6932ZM840.578 46.9913C837.126 50.4811 835.256 54.7469 834.991 59.6944L838.986 59.9079C839.199 55.9236 840.669 52.5871 843.422 49.8042L840.578 46.9913ZM154.651 268.307L152.891 267.356L152.888 267.362L154.651 268.307ZM125.418 298.903L126.404 300.643L126.41 300.64L125.418 298.903ZM41.9801 298.818L42.9724 297.082L41.9801 298.818ZM12.7472 268.222L10.9829 269.164L10.9845 269.167L12.7472 268.222ZM12.7472 171.148L14.5098 172.093L12.7472 171.148ZM41.9801 140.636L42.9664 142.376L42.9724 142.373L41.9801 140.636ZM125.418 140.636L124.425 142.373L124.431 142.376L125.418 140.636ZM154.651 171.148L152.888 172.093L152.891 172.099L154.651 171.148ZM115.957 177.369L114.415 178.643L114.419 178.647L115.957 177.369ZM51.5256 177.369L53.0642 178.647L53.0679 178.643L51.5256 177.369ZM51.5256 262.085L49.9833 263.359L51.5256 262.085ZM115.957 262.085L114.415 260.812L115.957 262.085ZM163.474 219.727C163.474 238.512 159.914 254.361 152.891 267.356L156.41 269.258C163.819 255.548 167.474 239.011 167.474 219.727H163.474ZM152.888 267.362C145.894 280.406 136.407 290.32 124.425 297.167L126.41 300.64C139.087 293.396 149.089 282.912 156.413 269.252L152.888 267.362ZM124.431 297.163C112.429 303.966 98.8825 307.386 83.7415 307.386V311.386C99.5096 311.386 113.747 307.818 126.404 300.643L124.431 297.163ZM83.7415 307.386C68.5451 307.386 54.9723 303.939 42.9724 297.082L40.9879 300.555C53.647 307.788 67.9151 311.386 83.7415 311.386V307.386ZM42.9724 297.082C30.9908 290.235 21.5038 280.321 14.5098 267.277L10.9845 269.167C18.3087 282.827 28.3103 293.31 40.9879 300.555L42.9724 297.082ZM14.5114 267.28C7.5405 254.223 4.00851 238.398 4.00851 219.727H0.0085144C0.0085144 238.897 3.63565 255.402 10.9829 269.164L14.5114 267.28ZM4.00851 219.727C4.00851 200.94 7.54147 185.089 14.5098 172.093L10.9845 170.203C3.63467 183.911 0.0085144 200.446 0.0085144 219.727H4.00851ZM14.5098 172.093C21.5032 159.049 30.9884 149.166 42.9664 142.376L40.9939 138.896C28.3128 146.084 18.3093 156.541 10.9845 170.203L14.5098 172.093ZM42.9724 142.373C54.9723 135.516 68.5451 132.068 83.7415 132.068V128.068C67.9151 128.068 53.647 131.666 40.9879 138.9L42.9724 142.373ZM83.7415 132.068C98.8796 132.068 112.424 135.515 124.425 142.373L126.41 138.9C113.752 131.667 99.5125 128.068 83.7415 128.068V132.068ZM124.431 142.376C136.409 149.166 145.895 159.049 152.888 172.093L156.413 170.203C149.088 156.541 139.085 146.084 126.404 138.896L124.431 142.376ZM152.891 172.099C159.914 185.094 163.474 200.942 163.474 219.727H167.474C167.474 200.444 163.819 183.906 156.41 170.197L152.891 172.099ZM130.06 219.727C130.06 200.949 125.974 186.301 117.496 176.092L114.419 178.647C122.077 187.869 126.06 201.46 126.06 219.727H130.06ZM117.5 176.096C109.027 165.833 97.7076 160.71 83.7415 160.71V164.71C96.5936 164.71 106.751 169.36 114.415 178.643L117.5 176.096ZM83.7415 160.71C69.7754 160.71 58.456 165.833 49.9833 176.096L53.0679 178.643C60.7315 169.36 70.8894 164.71 83.7415 164.71V160.71ZM49.9869 176.092C41.5088 186.301 37.4233 200.949 37.4233 219.727H41.4233C41.4233 201.46 45.4059 187.869 53.0642 178.647L49.9869 176.092ZM37.4233 219.727C37.4233 238.451 41.51 253.095 49.9833 263.359L53.0679 260.812C45.4047 251.53 41.4233 237.935 41.4233 219.727H37.4233ZM49.9833 263.359C58.456 273.621 69.7754 278.744 83.7415 278.744V274.744C70.8894 274.744 60.7315 270.095 53.0679 260.812L49.9833 263.359ZM83.7415 278.744C97.7076 278.744 109.027 273.621 117.5 263.359L114.415 260.812C106.751 270.095 96.5936 274.744 83.7415 274.744V278.744ZM117.5 263.359C125.973 253.095 130.06 238.451 130.06 219.727H126.06C126.06 237.935 122.078 251.53 114.415 260.812L117.5 263.359ZM314.175 176.091L316.063 176.751L316.993 174.091H314.175V176.091ZM268.408 307V309H269.827L270.296 307.66L268.408 307ZM227.499 307L225.611 307.66L226.079 309H227.499V307ZM181.732 176.091V174.091H178.914L179.844 176.751L181.732 176.091ZM220.084 176.091L222.005 175.533L221.586 174.091H220.084V176.091ZM247.271 269.756L245.351 270.313L245.769 271.756H247.271V269.756ZM248.635 269.756V271.756H250.138L250.556 270.312L248.635 269.756ZM275.737 176.091V174.091H274.234L273.816 175.535L275.737 176.091ZM312.287 175.431L266.52 306.34L270.296 307.66L316.063 176.751L312.287 175.431ZM268.408 305H227.499V309H268.408V305ZM229.387 306.34L183.62 175.431L179.844 176.751L225.611 307.66L229.387 306.34ZM181.732 178.091H220.084V174.091H181.732V178.091ZM218.163 176.648L245.351 270.313L249.192 269.198L222.005 175.533L218.163 176.648ZM247.271 271.756H248.635V267.756H247.271V271.756ZM250.556 270.312L277.658 176.647L273.816 175.535L246.714 269.2L250.556 270.312ZM275.737 178.091H314.175V174.091H275.737V178.091ZM353.273 301.375L352.286 303.115L352.294 303.119L353.273 301.375ZM330.858 278.023L329.081 278.941L329.083 278.945L330.858 278.023ZM330.858 206.688L329.079 205.773L330.858 206.688ZM352.932 182.909L351.909 181.19L351.904 181.193L352.932 182.909ZM417.705 181.716L416.771 183.485L416.776 183.487L417.705 181.716ZM439.864 203.875L438.112 204.841L438.115 204.845L439.864 203.875ZM448.045 250.835V252.835H450.045V250.835H448.045ZM358.898 250.835V248.835H356.898V250.835H358.898ZM366.909 274.017L365.459 275.394L366.909 274.017ZM404.324 278.619L403.324 276.887L404.324 278.619ZM413.699 267.284L413.831 265.288L412.332 265.19L411.819 266.601L413.699 267.284ZM447.278 269.5L449.236 269.912L449.71 267.656L447.41 267.504L447.278 269.5ZM427.847 298.648L428.993 300.287L427.847 298.648ZM358.898 228.335L356.901 228.229L356.788 230.335H358.898V228.335ZM413.869 228.335V230.335H415.884L415.869 228.321L413.869 228.335ZM406.369 209.074L404.939 210.472L406.369 209.074ZM367.25 209.33L365.828 207.923L367.25 209.33ZM387.96 307.557C374.824 307.557 363.613 304.887 354.252 299.631L352.294 303.119C362.364 308.772 374.278 311.557 387.96 311.557V307.557ZM354.26 299.635C344.885 294.318 337.684 286.82 332.633 277.1L329.083 278.945C334.486 289.339 342.229 297.41 352.286 303.115L354.26 299.635ZM332.635 277.104C327.582 267.329 325.017 255.697 325.017 242.142H321.017C321.017 256.201 323.679 268.489 329.081 278.941L332.635 277.104ZM325.017 242.142C325.017 228.938 327.579 217.443 332.637 207.602L329.079 205.773C323.683 216.273 321.017 228.414 321.017 242.142H325.017ZM332.637 207.602C337.699 197.752 344.802 190.108 353.959 184.625L351.904 181.193C342.084 187.074 334.471 195.283 329.079 205.773L332.637 207.602ZM353.955 184.628C363.145 179.157 373.974 176.386 386.511 176.386V172.386C373.367 172.386 361.809 175.297 351.909 181.19L353.955 184.628ZM386.511 176.386C397.754 176.386 407.826 178.765 416.771 183.485L418.638 179.947C409.06 174.894 398.337 172.386 386.511 172.386V176.386ZM416.776 183.487C425.721 188.178 432.833 195.272 438.112 204.841L441.615 202.909C435.985 192.706 428.324 185.026 418.633 179.945L416.776 183.487ZM438.115 204.845C443.36 214.298 446.045 226.269 446.045 240.864H450.045C450.045 225.799 447.276 213.111 441.612 202.905L438.115 204.845ZM446.045 240.864V250.835H450.045V240.864H446.045ZM448.045 248.835H358.898V252.835H448.045V248.835ZM356.898 250.835V250.92H360.898V250.835H356.898ZM356.898 250.92C356.898 261.066 359.68 269.307 365.459 275.394L368.359 272.64C363.457 267.477 360.898 260.32 360.898 250.92H356.898ZM365.459 275.394C371.242 281.486 379.02 284.455 388.557 284.455V280.455C379.912 280.455 373.258 277.799 368.359 272.64L365.459 275.394ZM388.557 284.455C394.921 284.455 400.535 283.114 405.323 280.352L403.324 276.887C399.249 279.238 394.352 280.455 388.557 280.455V284.455ZM405.323 280.352C410.18 277.55 413.606 273.391 415.578 267.968L411.819 266.601C410.155 271.177 407.331 274.575 403.324 276.887L405.323 280.352ZM413.567 269.28L447.147 271.496L447.41 267.504L413.831 265.288L413.567 269.28ZM445.321 269.088C442.871 280.739 436.691 290.021 426.7 297.009L428.993 300.287C439.797 292.729 446.572 282.579 449.236 269.912L445.321 269.088ZM426.7 297.009C416.721 303.989 403.857 307.557 387.96 307.557V311.557C404.45 311.557 418.177 307.852 428.993 300.287L426.7 297.009ZM358.898 230.335H413.869V226.335H358.898V230.335ZM415.869 228.321C415.809 220.076 413.142 213.142 407.799 207.676L404.939 210.472C409.483 215.12 411.816 221.026 411.869 228.35L415.869 228.321ZM407.799 207.676C402.434 202.187 395.475 199.489 387.108 199.489V203.489C394.536 203.489 400.418 205.847 404.939 210.472L407.799 207.676ZM387.108 199.489C378.563 199.489 371.413 202.277 365.828 207.923L368.672 210.736C373.428 205.927 379.517 203.489 387.108 203.489V199.489ZM365.828 207.923C360.308 213.504 357.324 220.304 356.901 228.229L360.895 228.442C361.267 221.48 363.851 215.61 368.672 210.736L365.828 207.923ZM471.739 307H469.739V309H471.739V307ZM471.739 176.091V174.091H469.739V176.091H471.739ZM506.938 176.091H508.938V174.091H506.938V176.091ZM506.938 198.932H504.938V200.932H506.938V198.932ZM508.301 198.932V200.932H509.798L510.22 199.495L508.301 198.932ZM520.318 180.523L521.505 182.132L521.516 182.125L520.318 180.523ZM551.17 175.494H553.17V173.915L551.634 173.549L551.17 175.494ZM551.17 207.71L550.538 209.608L553.17 210.485V207.71H551.17ZM544.097 206.347L543.835 208.329L543.853 208.332L543.872 208.334L544.097 206.347ZM515.886 213.335L517.269 214.781L517.269 214.78L515.886 213.335ZM508.045 307V309H510.045V307H508.045ZM473.739 307V176.091H469.739V307H473.739ZM471.739 178.091H506.938V174.091H471.739V178.091ZM504.938 176.091V198.932H508.938V176.091H504.938ZM506.938 200.932H508.301V196.932H506.938V200.932ZM510.22 199.495C512.51 191.699 516.301 185.97 521.505 182.132L519.131 178.913C513.085 183.371 508.865 189.915 506.382 198.368L510.22 199.495ZM521.516 182.125C526.779 178.19 532.832 176.216 539.75 176.216V172.216C532.009 172.216 525.107 174.446 519.121 178.921L521.516 182.125ZM539.75 176.216C543.643 176.216 547.293 176.627 550.707 177.44L551.634 173.549C547.889 172.657 543.925 172.216 539.75 172.216V176.216ZM549.17 175.494V207.71H553.17V175.494H549.17ZM551.803 205.813C549.907 205.181 547.391 204.707 544.322 204.359L543.872 208.334C546.825 208.668 549.025 209.103 550.538 209.608L551.803 205.813ZM544.359 204.364C541.278 203.957 538.433 203.75 535.83 203.75V207.75C538.226 207.75 540.892 207.941 543.835 208.329L544.359 204.364ZM535.83 203.75C527.357 203.75 520.197 206.442 514.504 211.89L517.269 214.78C522.144 210.115 528.28 207.75 535.83 207.75V203.75ZM514.504 211.89C508.835 217.313 506.045 224.393 506.045 232.938H510.045C510.045 225.346 512.483 219.358 517.269 214.781L514.504 211.89ZM506.045 232.938V307H510.045V232.938H506.045ZM508.045 305H471.739V309H508.045V305ZM606.249 132.455H608.249V130.455H606.249V132.455ZM606.249 307V309H608.249V307H606.249ZM569.942 307H567.942V309H569.942V307ZM569.942 132.455V130.455H567.942V132.455H569.942ZM604.249 132.455V307H608.249V132.455H604.249ZM606.249 305H569.942V309H606.249V305ZM571.942 307V132.455H567.942V307H571.942ZM569.942 134.455H606.249V130.455H569.942V134.455ZM641.554 299.67L642.797 298.103L641.554 299.67ZM636.099 247.426L634.558 246.152L636.099 247.426ZM654.168 235.239L654.817 237.13L654.826 237.127L654.168 235.239ZM678.372 230.125L678.556 232.117L678.563 232.116L678.571 232.115L678.372 230.125ZM704.963 205.324L703.641 206.824L703.647 206.83L703.653 206.835L704.963 205.324ZM675.048 205.153L676.233 206.765L675.048 205.153ZM667.378 215.977L667.216 217.971L668.85 218.103L669.301 216.527L667.378 215.977ZM633.798 213.25L631.841 212.84L631.376 215.06L633.636 215.243L633.798 213.25ZM652.378 184.869L651.228 183.233L651.223 183.236L652.378 184.869ZM718.088 178.989L717.407 180.869L718.088 178.989ZM738.543 193.392L736.974 194.633L736.98 194.641L736.986 194.648L738.543 193.392ZM746.384 307V309H748.384V307H746.384ZM711.952 307H709.952V309H711.952V307ZM711.952 288.847H713.952V286.847H711.952V288.847ZM710.929 288.847V286.847H709.718L709.157 287.919L710.929 288.847ZM696.611 303.761L697.644 305.474L697.649 305.471L696.611 303.761ZM702.662 277.511L704 278.998L704.009 278.99L702.662 277.511ZM710.332 246.318H712.332V242.54L709.208 244.664L710.332 246.318ZM703.685 248.875L703.208 246.933L703.2 246.935L703.685 248.875ZM694.139 250.835L694.441 252.812L694.454 252.81L694.468 252.808L694.139 250.835ZM685.105 252.199L685.388 254.179L685.4 254.177L685.105 252.199ZM669.679 257.568L668.553 255.915L668.542 255.923L669.679 257.568ZM669.253 280.58L668.09 282.207L668.096 282.211L668.103 282.216L669.253 280.58ZM672.662 307.472C660.525 307.472 650.618 304.307 642.797 298.103L640.311 301.237C648.967 308.102 659.799 311.472 672.662 311.472V307.472ZM642.797 298.103C635.147 292.036 631.196 282.938 631.196 270.438H627.196C627.196 283.846 631.484 294.236 640.311 301.237L642.797 298.103ZM631.196 270.438C631.196 260.966 633.425 253.801 637.641 248.7L634.558 246.152C629.569 252.188 627.196 260.364 627.196 270.438H631.196ZM637.641 248.7C641.988 243.441 647.69 239.578 654.817 237.13L653.518 233.347C645.758 236.013 639.416 240.275 634.558 246.152L637.641 248.7ZM654.826 237.127C662.159 234.572 670.066 232.898 678.556 232.117L678.189 228.133C669.405 228.942 661.176 230.678 653.51 233.35L654.826 237.127ZM678.571 232.115C689.942 230.978 698.198 229.774 703.243 228.483L702.251 224.608C697.524 225.817 689.53 226.999 678.173 228.135L678.571 232.115ZM703.243 228.483C705.929 227.796 708.166 226.648 709.734 224.897C711.333 223.112 712.077 220.88 712.077 218.364H708.077C708.077 220.051 707.599 221.285 706.755 222.228C705.88 223.205 704.451 224.045 702.251 224.608L703.243 228.483ZM712.077 218.364V217.852H708.077V218.364H712.077ZM712.077 217.852C712.077 212 710.207 207.222 706.273 203.812L703.653 206.835C706.538 209.335 708.077 212.91 708.077 217.852H712.077ZM706.286 203.823C702.448 200.441 697.137 198.892 690.645 198.892V202.892C696.539 202.892 700.774 204.297 703.641 206.824L706.286 203.823ZM690.645 198.892C683.836 198.892 678.176 200.372 673.864 203.542L676.233 206.765C679.648 204.253 684.385 202.892 690.645 202.892V198.892ZM673.864 203.542C669.664 206.63 666.833 210.603 665.455 215.428L669.301 216.527C670.422 212.602 672.706 209.358 676.233 206.765L673.864 203.542ZM667.54 213.984L633.96 211.257L633.636 215.243L667.216 217.971L667.54 213.984ZM635.756 213.66C638.153 202.219 644.062 193.197 653.532 186.502L651.223 183.236C640.921 190.519 634.444 200.417 631.841 212.84L635.756 213.66ZM653.528 186.506C663.048 179.814 675.426 176.386 690.815 176.386V172.386C674.841 172.386 661.594 175.947 651.228 183.233L653.528 186.506ZM690.815 176.386C700.317 176.386 709.176 177.886 717.407 180.869L718.77 177.108C710.068 173.955 700.745 172.386 690.815 172.386V176.386ZM717.407 180.869C725.552 183.821 732.053 188.414 736.974 194.633L740.111 192.151C734.691 185.302 727.555 180.292 718.77 177.108L717.407 180.869ZM736.986 194.648C741.861 200.688 744.384 208.647 744.384 218.705H748.384C748.384 207.966 745.679 199.05 740.099 192.136L736.986 194.648ZM744.384 218.705V307H748.384V218.705H744.384ZM746.384 305H711.952V309H746.384V305ZM713.952 307V288.847H709.952V307H713.952ZM711.952 286.847H710.929V290.847H711.952V286.847ZM709.157 287.919C706.158 293.649 701.652 298.361 695.573 302.052L697.649 305.471C704.296 301.435 709.336 296.203 712.701 289.774L709.157 287.919ZM695.577 302.049C689.665 305.618 682.067 307.472 672.662 307.472V311.472C682.575 311.472 690.943 309.519 697.644 305.474L695.577 302.049ZM683.06 286.415C691.426 286.415 698.462 283.982 704 278.998L701.324 276.025C696.635 280.245 690.602 282.415 683.06 282.415V286.415ZM704.009 278.99C709.536 273.954 712.332 267.652 712.332 260.21H708.332C708.332 266.519 706.016 271.75 701.315 276.033L704.009 278.99ZM712.332 260.21V246.318H708.332V260.21H712.332ZM709.208 244.664C708.084 245.429 706.144 246.213 703.208 246.933L704.161 250.817C707.249 250.06 709.74 249.139 711.457 247.972L709.208 244.664ZM703.2 246.935C700.303 247.659 697.174 248.302 693.81 248.862L694.468 252.808C697.923 252.232 701.157 251.568 704.17 250.815L703.2 246.935ZM693.838 248.858C690.487 249.369 687.478 249.823 684.811 250.221L685.4 254.177C688.073 253.779 691.087 253.324 694.441 252.812L693.838 248.858ZM684.822 250.219C678.258 251.157 672.799 253.023 668.553 255.915L670.805 259.221C674.4 256.772 679.225 255.059 685.388 254.179L684.822 250.219ZM668.542 255.923C664.084 259.004 661.884 263.542 661.884 269.244H665.884C665.884 264.719 667.547 261.473 670.816 259.213L668.542 255.923ZM661.884 269.244C661.884 274.788 663.907 279.219 668.09 282.207L670.415 278.952C667.439 276.826 665.884 273.7 665.884 269.244H661.884ZM668.103 282.216C672.152 285.063 677.184 286.415 683.06 286.415V282.415C677.799 282.415 673.626 281.21 670.403 278.943L668.103 282.216ZM779.324 354.812L778.986 356.784L778.991 356.785L779.324 354.812ZM769.438 352.17L767.522 351.594L767.001 353.328L768.674 354.019L769.438 352.17ZM777.619 324.983L778.211 323.073L776.285 322.476L775.704 324.407L777.619 324.983ZM793.812 326.517L793.411 324.558L793.396 324.561L793.381 324.564L793.812 326.517ZM804.295 316.29L806.131 317.084L806.147 317.046L806.162 317.008L804.295 316.29ZM806.426 310.75L808.293 311.468L808.556 310.784L808.315 310.091L806.426 310.75ZM759.466 176.091V174.091H756.65L757.577 176.749L759.466 176.091ZM797.648 176.091L799.573 175.548L799.162 174.091H797.648V176.091ZM824.75 272.227L822.825 272.77L823.236 274.227H824.75V272.227ZM826.114 272.227V274.227H827.624L828.037 272.775L826.114 272.227ZM853.472 176.091L853.48 174.091L851.963 174.084L851.548 175.543L853.472 176.091ZM891.909 176.261L893.796 176.924L894.727 174.274L891.918 174.261L891.909 176.261ZM841.028 321.148L839.141 320.485L839.139 320.491L841.028 321.148ZM824.068 346.29L822.798 344.745L822.791 344.751L824.068 346.29ZM792.278 353.835C787.774 353.835 783.568 353.502 779.657 352.84L778.991 356.785C783.147 357.487 787.578 357.835 792.278 357.835V353.835ZM779.662 352.841C775.774 352.175 772.633 351.327 770.201 350.322L768.674 354.019C771.469 355.173 774.919 356.087 778.986 356.784L779.662 352.841ZM771.353 352.747L779.534 325.559L775.704 324.407L767.522 351.594L771.353 352.747ZM777.028 326.893C783.626 328.937 789.402 329.539 794.244 328.47L793.381 324.564C789.473 325.427 784.453 325.006 778.211 323.073L777.028 326.893ZM794.214 328.476C799.529 327.386 803.432 323.32 806.131 317.084L802.46 315.496C800.045 321.077 796.96 323.83 793.411 324.558L794.214 328.476ZM806.162 317.008L808.293 311.468L804.559 310.032L802.429 315.572L806.162 317.008ZM808.315 310.091L761.354 175.432L757.577 176.749L804.538 311.409L808.315 310.091ZM759.466 178.091H797.648V174.091H759.466V178.091ZM795.723 176.634L822.825 272.77L826.675 271.685L799.573 175.548L795.723 176.634ZM824.75 274.227H826.114V270.227H824.75V274.227ZM828.037 272.775L855.395 176.638L851.548 175.543L824.19 271.68L828.037 272.775ZM853.463 178.091L891.9 178.261L891.918 174.261L853.48 174.091L853.463 178.091ZM890.022 175.599L839.141 320.485L842.915 321.81L893.796 176.924L890.022 175.599ZM839.139 320.491C835.61 330.639 830.153 338.698 822.798 344.745L825.338 347.835C833.324 341.268 839.175 332.566 842.917 321.805L839.139 320.491ZM822.791 344.751C815.59 350.725 805.501 353.835 792.278 353.835V357.835C806.101 357.835 817.206 354.582 825.345 347.829L822.791 344.751Z" fill="url(#paint0_linear)"/>
<defs>
<linearGradient id="paint0_linear" x1="-480" y1="-32" x2="917.45" y2="178.806" gradientUnits="userSpaceOnUse">
<stop stop-color="#5236FF"/>
<stop offset="1" stop-color="#C20560"/>
</linearGradient>
</defs>
</svg>
