<svg width="48" height="48" viewBox="0 0 48 48" fill="none" xmlns="http://www.w3.org/2000/svg">
<rect width="48" height="48" rx="24" fill="#5236FF"/>
<path d="M19.8085 36C30.372 36 36.1513 27.5351 36.1513 20.1965C36.1513 19.9586 36.1459 19.7153 36.1349 19.4773C37.2592 18.6911 38.2294 17.7173 39 16.6016C37.9529 17.0521 36.8412 17.3463 35.7029 17.4741C36.9015 16.7794 37.799 15.688 38.2289 14.4022C37.1013 15.0484 35.8682 15.5042 34.5823 15.7502C33.716 14.86 32.5705 14.2706 31.323 14.0731C30.0754 13.8756 28.7954 14.081 27.6807 14.6575C26.566 15.2341 25.6788 16.1496 25.1562 17.2627C24.6335 18.3758 24.5047 19.6243 24.7895 20.8153C22.5062 20.7045 20.2726 20.1309 18.2333 19.1318C16.194 18.1327 14.3946 16.7303 12.9518 15.0156C12.2185 16.2382 11.9941 17.685 12.3242 19.0619C12.6543 20.4387 13.5142 21.6424 14.7291 22.4282C13.8171 22.4002 12.925 22.1627 12.1266 21.7354V21.8042C12.1257 23.0872 12.5844 24.331 13.4247 25.3239C14.2649 26.3169 15.4349 26.9979 16.7356 27.2511C15.8907 27.4746 15.004 27.5072 14.144 27.3463C14.511 28.4497 15.2252 29.4148 16.1867 30.1069C17.1483 30.7989 18.3093 31.1834 19.5077 31.2067C17.4732 32.7522 14.9599 33.5904 12.3727 33.5864C11.9138 33.5858 11.4555 33.5586 11 33.505C13.6283 35.1356 16.6858 36.0016 19.8085 36Z" fill="#050012"/>
</svg>
