<svg width="453" height="118" viewBox="0 0 453 118" fill="none" xmlns="http://www.w3.org/2000/svg">
<path d="M164.927 51.9194L176.852 31.3137H182.531L167.847 55.8945L183.18 81.1242H177.501L165.089 60.0318L152.677 81.1242H147.08L162.25 55.8945L147.323 31.3948H153.002L164.927 51.9194Z" fill="white"/>
<path d="M208.086 61.2494H195.917V81.206H191.131V31.3955H206.058C210.925 31.3955 214.738 32.6935 217.415 35.3706C220.173 38.0477 221.553 41.6983 221.553 46.4847C221.553 49.8108 220.741 52.6502 219.119 55.0839C217.496 57.4365 215.306 59.1401 212.548 60.1136L223.5 80.8815V81.2872H218.389L208.086 61.2494ZM195.917 56.7875H206.788C209.871 56.7875 212.304 55.814 214.089 53.9482C215.874 52.0012 216.766 49.5674 216.766 46.5658C216.766 43.2397 215.793 40.5626 213.927 38.6967C212.061 36.8309 209.384 35.8574 205.977 35.8574H195.917V56.7875Z" fill="white"/>
<path d="M234.857 52.1628H253.354V37.8848H231.937V31.3137H260.898V81.1242H231.693V74.6343H253.354V58.5716H234.857V52.1628Z" fill="white"/>
<path d="M304.138 81.206H296.593L276.15 43.7265V81.206H268.605V31.3955H276.15L296.593 68.8751V31.3955H304.138V81.206Z" fill="white"/>
<path d="M348.837 74.7969C345.673 79.5021 340.238 81.9358 332.531 81.9358C326.771 81.9358 322.066 79.8266 318.578 75.527C315.089 71.2274 313.305 65.4675 313.224 58.2474V54.5157C313.224 46.9711 314.846 41.1301 318.091 36.9116C321.336 32.7743 325.879 30.665 331.801 30.665C336.669 30.665 340.563 31.963 343.402 34.6401C346.241 37.3173 348.107 41.2112 348.837 46.4843H341.293C340.319 40.3189 337.236 37.2361 331.801 37.2361C324.905 37.2361 321.255 42.2659 320.768 52.4064L320.687 58.1663C320.687 63.6017 321.742 67.8201 323.851 70.9029C325.96 73.9856 328.881 75.527 332.531 75.527C336.101 75.527 338.697 74.7968 340.4 73.2555L341.293 72.3631V62.1414H331.801V55.9759H348.756V74.7969H348.837Z" fill="white"/>
<path d="M366.685 81.206H359.059V31.3955H366.604V81.206H366.685Z" fill="white"/>
<path d="M413.006 81.206H405.462L385.018 43.7265V81.206H377.474V31.3955H385.018L405.462 68.8751V31.3955H413.006V81.206Z" fill="white"/>
<path d="M449.836 58.7342H431.34V74.7969H453V81.2869H423.795V31.4763H452.676V38.0474H431.259V52.3254H449.755V58.7342H449.836Z" fill="white"/>
<path fill-rule="evenodd" clip-rule="evenodd" d="M6.97672 117.793H110.816C114.629 117.793 117.793 114.629 117.793 110.816V6.97672C117.793 3.08274 114.629 0 110.816 0H6.97672C3.08274 0 0 3.16386 0 6.97672V110.816C0 114.71 3.16386 117.793 6.97672 117.793ZM40.4004 41.05L32.6936 56.0581L25.0679 41.05H17.9289L29.2053 60.9256L17.6855 81.1256H24.9056L32.8559 65.8742L40.8061 81.1256H48.0262L36.4253 60.9256L47.6205 41.05H40.4004ZM67.7394 65.7119H60.6816V81.2067H54.5973V41.05H67.0093C71.2278 41.05 74.4728 42.1047 76.6632 44.2139C78.8535 46.3232 79.9893 49.3248 79.9893 53.2999C79.9893 58.4918 77.7989 62.1425 73.4182 64.1706L81.6118 80.8011V81.1256H75.1218L67.7394 65.7119ZM60.6005 60.52H66.9282C69.1186 60.52 70.8222 59.871 72.0391 58.6541C73.2559 57.3561 73.9049 55.7336 73.9049 53.6244C73.9049 48.838 71.5523 46.4043 66.766 46.4043H60.6005V60.52ZM94.2666 42.429H92.0762V46.5664H94.6722C97.3493 46.5664 98.7284 47.9455 98.7284 50.5415C98.7284 51.6772 98.4039 52.6507 97.7549 53.2997C97.1059 54.0298 96.1324 54.3543 94.9156 54.3543C93.6987 54.3543 92.8063 53.9487 92.1573 53.2997C91.5083 52.5696 91.1839 51.7584 91.1839 50.7037H85.9919C85.9919 53.1375 86.722 55.0845 88.3445 56.5447C89.967 58.005 92.0762 58.7351 94.6722 58.7351C97.2682 58.7351 99.4586 58.0049 101.162 56.6258C102.866 55.2467 103.677 53.2997 103.677 50.7849C103.677 47.4587 102.217 45.3495 99.3774 44.4571C100.675 43.8893 101.649 43.078 102.298 42.0234C103.028 40.9688 103.353 39.833 103.353 38.535C103.353 36.1013 102.541 34.2354 101.081 32.8563C99.6208 31.4772 97.4304 30.7471 94.7533 30.7471C92.2385 30.7471 90.2915 31.4772 88.669 32.8563C87.1276 34.2354 86.3164 36.1013 86.3164 38.2917H91.4272C91.4272 37.3182 91.7517 36.5069 92.4007 35.939C93.0497 35.3712 93.861 35.1278 94.8345 35.1278C96.0513 35.1278 96.9437 35.5334 97.5116 36.1824C98.0795 36.8314 98.3228 37.7238 98.3228 38.6973C98.3228 41.2121 96.9437 42.429 94.2666 42.429Z" fill="white"/>
</svg>
