<svg width="390" height="176" viewBox="0 0 390 176" fill="none" xmlns="http://www.w3.org/2000/svg">
<g opacity="0.5" filter="url(#filter0_f)">
<rect x="64" y="64" width="262" height="48" rx="8" fill="url(#paint0_linear)"/>
</g>
<rect x="64" y="64" width="262" height="48" rx="8" fill="url(#paint1_linear)"/>
<path d="M120.746 81.9091H117.671L122.191 95H125.757L130.27 81.9091H127.202L124.032 91.8551H123.91L120.746 81.9091ZM131.795 95H134.518V85.1818H131.795V95ZM133.163 83.9162C133.974 83.9162 134.639 83.2962 134.639 82.5355C134.639 81.7812 133.974 81.1612 133.163 81.1612C132.357 81.1612 131.692 81.7812 131.692 82.5355C131.692 83.2962 132.357 83.9162 133.163 83.9162ZM144.868 87.9815C144.625 86.1726 143.168 85.054 140.688 85.054C138.176 85.054 136.52 86.2173 136.526 88.1094C136.52 89.5795 137.447 90.532 139.364 90.9155L141.065 91.2543C141.921 91.4268 142.311 91.7401 142.324 92.2322C142.311 92.8139 141.678 93.2294 140.726 93.2294C139.754 93.2294 139.109 92.8139 138.943 92.0149L136.264 92.1555C136.52 94.0348 138.118 95.1918 140.72 95.1918C143.264 95.1918 145.085 93.8942 145.092 91.9574C145.085 90.5384 144.158 89.6882 142.254 89.2983L140.477 88.9403C139.563 88.7422 139.224 88.429 139.23 87.956C139.224 87.3679 139.889 86.9844 140.732 86.9844C141.678 86.9844 142.241 87.5021 142.375 88.1349L144.868 87.9815ZM146.806 95H149.529V85.1818H146.806V95ZM148.174 83.9162C148.986 83.9162 149.651 83.2962 149.651 82.5355C149.651 81.7812 148.986 81.1612 148.174 81.1612C147.369 81.1612 146.704 81.7812 146.704 82.5355C146.704 83.2962 147.369 83.9162 148.174 83.9162ZM156.933 85.1818H155.086V82.8295H152.363V85.1818H151.02V87.2273H152.363V92.3409C152.35 94.2649 153.66 95.2173 155.635 95.1342C156.339 95.1087 156.837 94.968 157.112 94.8786L156.684 92.8523C156.549 92.8778 156.262 92.9418 156.006 92.9418C155.463 92.9418 155.086 92.7372 155.086 91.983V87.2273H156.933V85.1818ZM162.924 95H165.692V90.7557H168.018C171.029 90.7557 172.78 88.9595 172.78 86.3452C172.78 83.7436 171.061 81.9091 168.089 81.9091H162.924V95ZM165.692 88.5376V84.1719H167.558C169.156 84.1719 169.93 85.0412 169.93 86.3452C169.93 87.6428 169.156 88.5376 167.571 88.5376H165.692ZM174.527 95H177.25V89.4453C177.25 88.2372 178.132 87.4062 179.334 87.4062C179.711 87.4062 180.229 87.4702 180.484 87.5533V85.1371C180.242 85.0795 179.903 85.0412 179.628 85.0412C178.528 85.0412 177.627 85.6804 177.269 86.8949H177.167V85.1818H174.527V95ZM185.871 95.1918C188.85 95.1918 190.704 93.1527 190.704 90.1293C190.704 87.0866 188.85 85.054 185.871 85.054C182.893 85.054 181.039 87.0866 181.039 90.1293C181.039 93.1527 182.893 95.1918 185.871 95.1918ZM185.884 93.0824C184.51 93.0824 183.807 91.8232 183.807 90.1101C183.807 88.397 184.51 87.1314 185.884 87.1314C187.233 87.1314 187.936 88.397 187.936 90.1101C187.936 91.8232 187.233 93.0824 185.884 93.0824ZM192.474 85.1818V95.4411C192.474 96.1825 192.161 96.5533 191.285 96.5533C191.17 96.5533 191.068 96.5533 190.927 96.5405V98.669C191.126 98.6754 191.285 98.6818 191.477 98.6818C193.791 98.6818 195.197 97.7614 195.197 95.4858V85.1818H192.474ZM193.829 83.9162C194.641 83.9162 195.306 83.2962 195.306 82.5355C195.306 81.7812 194.641 81.1612 193.829 81.1612C193.024 81.1612 192.359 81.7812 192.359 82.5355C192.359 83.2962 193.024 83.9162 193.829 83.9162ZM201.853 95.1918C204.282 95.1918 205.918 94.0092 206.302 92.1875L203.783 92.0213C203.509 92.7692 202.805 93.1591 201.898 93.1591C200.536 93.1591 199.673 92.2578 199.673 90.794V90.7876H206.359V90.0398C206.359 86.7031 204.34 85.054 201.744 85.054C198.855 85.054 196.982 87.1058 196.982 90.1357C196.982 93.2486 198.83 95.1918 201.853 95.1918ZM199.673 89.1001C199.731 87.9815 200.581 87.0866 201.789 87.0866C202.972 87.0866 203.79 87.9304 203.796 89.1001H199.673ZM212.573 95.1918C215.187 95.1918 216.83 93.6577 216.957 91.4013H214.388C214.228 92.4496 213.538 93.0376 212.604 93.0376C211.332 93.0376 210.508 91.9702 210.508 90.0909C210.508 88.2372 211.339 87.1761 212.604 87.1761C213.602 87.1761 214.241 87.8345 214.388 88.8125H216.957C216.842 86.5433 215.123 85.054 212.56 85.054C209.581 85.054 207.74 87.1186 207.74 90.1293C207.74 93.1143 209.549 95.1918 212.573 95.1918ZM223.923 85.1818H222.076V82.8295H219.353V85.1818H218.011V87.2273H219.353V92.3409C219.34 94.2649 220.65 95.2173 222.626 95.1342C223.329 95.1087 223.827 94.968 224.102 94.8786L223.674 92.8523C223.54 92.8778 223.252 92.9418 222.996 92.9418C222.453 92.9418 222.076 92.7372 222.076 91.983V87.2273H223.923V85.1818ZM229.914 95H232.682V90.7557H235.009C238.019 90.7557 239.771 88.9595 239.771 86.3452C239.771 83.7436 238.051 81.9091 235.079 81.9091H229.914V95ZM232.682 88.5376V84.1719H234.548C236.146 84.1719 236.92 85.0412 236.92 86.3452C236.92 87.6428 236.146 88.5376 234.561 88.5376H232.682ZM244.053 95.1854C245.504 95.1854 246.444 94.5526 246.923 93.6385H247V95H249.582V88.3778C249.582 86.0384 247.601 85.054 245.415 85.054C243.063 85.054 241.516 86.179 241.139 87.9688L243.657 88.1733C243.842 87.5213 244.424 87.0419 245.402 87.0419C246.329 87.0419 246.859 87.5085 246.859 88.3139V88.3523C246.859 88.9851 246.188 89.0682 244.482 89.2344C242.538 89.4134 240.793 90.0653 240.793 92.2578C240.793 94.201 242.18 95.1854 244.053 95.1854ZM244.833 93.3061C243.996 93.3061 243.395 92.9162 243.395 92.1683C243.395 91.4013 244.028 91.0241 244.987 90.8899C245.581 90.8068 246.553 90.6662 246.879 90.4489V91.4908C246.879 92.5199 246.028 93.3061 244.833 93.3061ZM256.118 98.8864C258.924 98.8864 260.919 97.608 260.919 95.0959V85.1818H258.215V86.831H258.113C257.748 86.032 256.949 85.054 255.307 85.054C253.152 85.054 251.331 86.7287 251.331 90.0717C251.331 93.3381 253.101 94.8594 255.313 94.8594C256.879 94.8594 257.755 94.0732 258.113 93.2614H258.228V95.0575C258.228 96.4062 257.365 96.9304 256.182 96.9304C254.981 96.9304 254.373 96.4062 254.15 95.8118L251.631 96.1506C251.957 97.6974 253.472 98.8864 256.118 98.8864ZM256.176 92.8139C254.84 92.8139 254.111 91.7528 254.111 90.0589C254.111 88.3906 254.827 87.2209 256.176 87.2209C257.499 87.2209 258.241 88.3395 258.241 90.0589C258.241 91.7912 257.486 92.8139 256.176 92.8139ZM267.56 95.1918C269.989 95.1918 271.625 94.0092 272.009 92.1875L269.491 92.0213C269.216 92.7692 268.513 93.1591 267.605 93.1591C266.243 93.1591 265.38 92.2578 265.38 90.794V90.7876H272.066V90.0398C272.066 86.7031 270.047 85.054 267.451 85.054C264.562 85.054 262.689 87.1058 262.689 90.1357C262.689 93.2486 264.537 95.1918 267.56 95.1918ZM265.38 89.1001C265.438 87.9815 266.288 87.0866 267.496 87.0866C268.679 87.0866 269.497 87.9304 269.503 89.1001H265.38Z" fill="white"/>
<defs>
<filter id="filter0_f" x="0" y="0" width="390" height="176" filterUnits="userSpaceOnUse" color-interpolation-filters="sRGB">
<feFlood flood-opacity="0" result="BackgroundImageFix"/>
<feBlend mode="normal" in="SourceGraphic" in2="BackgroundImageFix" result="shape"/>
<feGaussianBlur stdDeviation="32" result="effect1_foregroundBlur"/>
</filter>
<linearGradient id="paint0_linear" x1="64" y1="64" x2="324.515" y2="119.03" gradientUnits="userSpaceOnUse">
<stop stop-color="#5236FF"/>
<stop offset="1" stop-color="#C20560"/>
</linearGradient>
<linearGradient id="paint1_linear" x1="64" y1="64" x2="324.515" y2="119.03" gradientUnits="userSpaceOnUse">
<stop stop-color="#5236FF"/>
<stop offset="1" stop-color="#C20560"/>
</linearGradient>
</defs>
</svg>
