<svg width="261" height="48" viewBox="0 0 261 48" fill="none" xmlns="http://www.w3.org/2000/svg">
<rect width="261" height="48" rx="8" fill="url(#paint0_linear)"/>
<path d="M116.792 21.674C116.741 21.1584 116.519 20.7578 116.127 20.4723C115.739 20.1868 115.215 20.044 114.555 20.044C113.877 20.044 113.357 20.1825 112.995 20.4595C112.633 20.7365 112.452 21.0859 112.452 21.5078C112.443 21.9766 112.644 22.3324 113.053 22.5753C113.466 22.8139 113.956 22.9993 114.523 23.1314L115.699 23.4126C116.457 23.5831 117.131 23.8303 117.719 24.1541C118.311 24.478 118.776 24.8956 119.112 25.407C119.453 25.9141 119.624 26.532 119.624 27.2607C119.619 28.4581 119.17 29.4126 118.275 30.1243C117.384 30.8317 116.14 31.1854 114.542 31.1854C112.953 31.1854 111.685 30.8232 110.739 30.0987C109.793 29.3743 109.303 28.3047 109.269 26.8899H111.947C111.994 27.5462 112.252 28.0405 112.72 28.3729C113.193 28.701 113.79 28.8651 114.51 28.8651C115.213 28.8651 115.774 28.7159 116.191 28.4176C116.613 28.1193 116.826 27.7315 116.83 27.2543C116.826 26.8111 116.632 26.4702 116.249 26.2315C115.865 25.9929 115.318 25.7884 114.606 25.6179L113.18 25.2599C112.077 24.9957 111.205 24.576 110.566 24.0007C109.927 23.4254 109.609 22.6562 109.614 21.6932C109.609 20.9006 109.82 20.2081 110.247 19.6158C110.677 19.0192 111.267 18.5568 112.017 18.2287C112.767 17.8963 113.619 17.7301 114.574 17.7301C115.546 17.7301 116.394 17.8963 117.118 18.2287C117.847 18.5611 118.413 19.0234 118.818 19.6158C119.223 20.2081 119.432 20.8942 119.445 21.674H116.792ZM125.909 31.1918C124.903 31.1918 124.036 30.9872 123.307 30.5781C122.578 30.1648 122.018 29.581 121.626 28.8267C121.234 28.0682 121.038 27.1712 121.038 26.1357C121.038 25.1257 121.234 24.2393 121.626 23.4766C122.018 22.7138 122.57 22.1193 123.282 21.6932C123.997 21.267 124.837 21.054 125.8 21.054C126.665 21.054 127.445 21.2372 128.139 21.6037C128.838 21.9702 129.392 22.5241 129.801 23.2656C130.21 24.0028 130.415 24.9276 130.415 26.0398V26.7876H123.729V26.794C123.729 27.527 123.929 28.1044 124.33 28.5263C124.73 28.9482 125.272 29.1591 125.953 29.1591C126.409 29.1591 126.804 29.0632 127.136 28.8714C127.468 28.6797 127.703 28.3963 127.839 28.0213L130.358 28.1875C130.166 29.0994 129.68 29.8281 128.9 30.3736C128.12 30.919 127.123 31.1918 125.909 31.1918ZM123.729 25.1001H127.852C127.848 24.5163 127.66 24.0348 127.289 23.6555C126.919 23.2763 126.437 23.0866 125.845 23.0866C125.24 23.0866 124.743 23.2827 124.355 23.6747C123.968 24.0668 123.759 24.5419 123.729 25.1001ZM134.915 25.3239V31H132.192V21.1818H134.787V22.9141H134.902C135.124 22.343 135.488 21.8913 135.995 21.5589C136.507 21.2223 137.127 21.054 137.855 21.054C138.878 21.054 139.698 21.3842 140.316 22.0447C140.934 22.701 141.243 23.6023 141.243 24.7486V31H138.52V25.2344C138.524 24.6335 138.371 24.1648 138.06 23.8281C137.749 23.4872 137.321 23.3168 136.775 23.3168C136.225 23.3168 135.778 23.4936 135.433 23.8473C135.092 24.1967 134.919 24.6889 134.915 25.3239ZM147.007 31.1598C146.261 31.1598 145.588 30.968 144.987 30.5845C144.386 30.1967 143.909 29.6278 143.555 28.8778C143.202 28.1236 143.025 27.1989 143.025 26.1037C143.025 24.9787 143.206 24.0433 143.568 23.2976C143.935 22.5476 144.418 21.9872 145.019 21.6165C145.624 21.2415 146.285 21.054 147.001 21.054C147.551 21.054 148.009 21.1477 148.375 21.3352C148.746 21.5185 149.044 21.7464 149.27 22.0192C149.5 22.2919 149.675 22.5625 149.794 22.831H149.877V17.9091H152.594V31H149.909V29.4276H149.794C149.671 29.7003 149.492 29.9709 149.257 30.2393C149.023 30.5036 148.72 30.723 148.35 30.8977C147.983 31.0724 147.536 31.1598 147.007 31.1598ZM147.87 28.9929C148.526 28.9929 149.033 28.7287 149.391 28.2003C149.754 27.6676 149.935 26.9645 149.935 26.0909C149.935 25.2131 149.756 24.5163 149.398 24.0007C149.04 23.4808 148.531 23.2209 147.87 23.2209C147.197 23.2209 146.683 23.4872 146.33 24.0199C145.98 24.5483 145.805 25.2386 145.805 26.0909C145.805 26.9474 145.982 27.6463 146.336 28.1875C146.69 28.7244 147.201 28.9929 147.87 28.9929Z" fill="white"/>
<defs>
<linearGradient id="paint0_linear" x1="0" y1="0" x2="259.605" y2="54.628" gradientUnits="userSpaceOnUse">
<stop stop-color="#5236FF"/>
<stop offset="1" stop-color="#C20560"/>
</linearGradient>
</defs>
</svg>
