<svg width="390" height="176" viewBox="0 0 390 176" fill="none" xmlns="http://www.w3.org/2000/svg">
<g opacity="0.5" filter="url(#filter0_f)">
<rect x="64" y="64" width="262" height="48" rx="8" fill="url(#paint0_linear)"/>
</g>
<rect x="64" y="64" width="262" height="48" rx="8" fill="url(#paint1_linear)"/>
<path d="M149.991 86.1406H152.804C152.446 83.5518 150.164 81.7301 147.204 81.7301C143.746 81.7301 141.081 84.223 141.081 88.4673C141.081 92.6094 143.573 95.179 147.262 95.179C150.566 95.179 152.925 93.0888 152.925 89.6435V87.9943H147.447V90.0781H150.259C150.221 91.7017 149.115 92.7308 147.274 92.7308C145.197 92.7308 143.887 91.1776 143.887 88.4418C143.887 85.7188 145.248 84.1783 147.249 84.1783C148.674 84.1783 149.639 84.9134 149.991 86.1406ZM159.427 95.1918C161.856 95.1918 163.493 94.0092 163.876 92.1875L161.358 92.0213C161.083 92.7692 160.38 93.1591 159.472 93.1591C158.111 93.1591 157.248 92.2578 157.248 90.794V90.7876H163.934V90.0398C163.934 86.7031 161.914 85.054 159.319 85.054C156.429 85.054 154.557 87.1058 154.557 90.1357C154.557 93.2486 156.404 95.1918 159.427 95.1918ZM157.248 89.1001C157.305 87.9815 158.155 87.0866 159.363 87.0866C160.546 87.0866 161.364 87.9304 161.37 89.1001H157.248ZM170.933 85.1818H169.086V82.8295H166.363V85.1818H165.02V87.2273H166.363V92.3409C166.35 94.2649 167.66 95.2173 169.635 95.1342C170.339 95.1087 170.837 94.968 171.112 94.8786L170.684 92.8523C170.549 92.8778 170.262 92.9418 170.006 92.9418C169.463 92.9418 169.086 92.7372 169.086 91.983V87.2273H170.933V85.1818ZM179.692 81.9091H176.924V95H179.692V81.9091ZM184.641 89.3239C184.647 88.0582 185.401 87.3168 186.501 87.3168C187.594 87.3168 188.252 88.0327 188.246 89.2344V95H190.969V88.7486C190.969 86.4602 189.627 85.054 187.581 85.054C186.124 85.054 185.069 85.7699 184.628 86.9141H184.513V85.1818H181.918V95H184.641V89.3239ZM196.834 84.1911H200.841V95H203.577V84.1911H207.585V81.9091H196.834V84.1911ZM212.317 95.1918C215.295 95.1918 217.149 93.1527 217.149 90.1293C217.149 87.0866 215.295 85.054 212.317 85.054C209.338 85.054 207.484 87.0866 207.484 90.1293C207.484 93.1527 209.338 95.1918 212.317 95.1918ZM212.329 93.0824C210.955 93.0824 210.252 91.8232 210.252 90.1101C210.252 88.397 210.955 87.1314 212.329 87.1314C213.678 87.1314 214.381 88.397 214.381 90.1101C214.381 91.8232 213.678 93.0824 212.329 93.0824ZM225.216 90.8196C225.222 92.1364 224.321 92.8267 223.343 92.8267C222.314 92.8267 221.649 92.1044 221.643 90.9474V85.1818H218.92V91.4332C218.926 93.728 220.268 95.1278 222.244 95.1278C223.72 95.1278 224.781 94.3672 225.222 93.2166H225.324V95H227.939V85.1818H225.216V90.8196ZM234.553 95.1918C237.167 95.1918 238.81 93.6577 238.938 91.4013H236.368C236.209 92.4496 235.518 93.0376 234.585 93.0376C233.313 93.0376 232.488 91.9702 232.488 90.0909C232.488 88.2372 233.319 87.1761 234.585 87.1761C235.582 87.1761 236.221 87.8345 236.368 88.8125H238.938C238.823 86.5433 237.103 85.054 234.54 85.054C231.562 85.054 229.721 87.1186 229.721 90.1293C229.721 93.1143 231.53 95.1918 234.553 95.1918ZM243.404 89.3239C243.411 88.0582 244.184 87.3168 245.296 87.3168C246.402 87.3168 247.054 88.0263 247.048 89.2344V95H249.771V88.7486C249.777 86.4474 248.422 85.054 246.377 85.054C244.887 85.054 243.89 85.7571 243.443 86.9141H243.328V81.9091H240.681V95H243.404V89.3239Z" fill="white"/>
<defs>
<filter id="filter0_f" x="0" y="0" width="390" height="176" filterUnits="userSpaceOnUse" color-interpolation-filters="sRGB">
<feFlood flood-opacity="0" result="BackgroundImageFix"/>
<feBlend mode="normal" in="SourceGraphic" in2="BackgroundImageFix" result="shape"/>
<feGaussianBlur stdDeviation="32" result="effect1_foregroundBlur"/>
</filter>
<linearGradient id="paint0_linear" x1="64" y1="64" x2="324.515" y2="119.03" gradientUnits="userSpaceOnUse">
<stop stop-color="#5236FF"/>
<stop offset="1" stop-color="#C20560"/>
</linearGradient>
<linearGradient id="paint1_linear" x1="64" y1="64" x2="324.515" y2="119.03" gradientUnits="userSpaceOnUse">
<stop stop-color="#5236FF"/>
<stop offset="1" stop-color="#C20560"/>
</linearGradient>
</defs>
</svg>
