<svg width="576" height="196" viewBox="0 0 576 196" fill="none" xmlns="http://www.w3.org/2000/svg">
<path d="M7.06818 76V6.18182H35.0227C42.7273 6.18182 48.5114 7.86363 52.375 11.2273C56.2614 14.5682 58.2045 18.8523 58.2045 24.0795C58.2045 28.1932 57.0114 31.5227 54.625 34.0682C52.2386 36.5909 49.2273 38.2614 45.5909 39.0795V39.7614C48.25 39.875 50.7386 40.625 53.0568 42.0114C55.3977 43.3977 57.2955 45.3295 58.75 47.8068C60.2045 50.2841 60.9318 53.25 60.9318 56.7045C60.9318 60.4091 60.0114 63.7159 58.1705 66.625C56.3523 69.5341 53.6591 71.8295 50.0909 73.5114C46.5227 75.1705 42.125 76 36.8977 76H7.06818ZM21.8295 63.9318H33.8636C38 63.9318 41 63.1364 42.8636 61.5455C44.75 59.9545 45.6932 57.8523 45.6932 55.2386C45.6932 52.3523 44.6591 49.9886 42.5909 48.1477C40.5455 46.3068 37.75 45.3864 34.2045 45.3864H21.8295V63.9318ZM21.8295 35.3977H32.7727C35.7955 35.3977 38.3068 34.6136 40.3068 33.0455C42.3068 31.4545 43.3068 29.2841 43.3068 26.5341C43.3068 24.0114 42.4091 21.9773 40.6136 20.4318C38.8409 18.8864 36.3182 18.1136 33.0455 18.1136H21.8295V35.3977ZM103.844 53.7045V23.6364H118.366V76H104.423V66.4886H103.878C102.696 69.5568 100.73 72.0227 97.9801 73.8864C95.2528 75.75 91.9233 76.6818 87.9915 76.6818C82.7188 76.6818 78.446 74.9318 75.1733 71.4318C71.9233 67.9091 70.2869 63.0909 70.2642 56.9773V23.6364H84.7869V54.3864C84.8097 57.4773 85.6392 59.9205 87.2756 61.7159C88.9119 63.5114 91.1051 64.4091 93.8551 64.4091C96.4688 64.4091 98.7869 63.5 100.81 61.6818C102.855 59.8636 103.866 57.2045 103.844 53.7045ZM129.983 76V23.6364H144.506V76H129.983ZM137.278 16.8864C135.142 16.8864 133.301 16.1705 131.756 14.7386C130.21 13.2841 129.438 11.5455 129.438 9.52272C129.438 7.5 130.21 5.77272 131.756 4.34091C133.301 2.90909 135.142 2.19318 137.278 2.19318C139.438 2.19318 141.29 2.90909 142.835 4.34091C144.381 5.77272 145.153 7.5 145.153 9.52272C145.153 11.5455 144.381 13.2841 142.835 14.7386C141.29 16.1705 139.438 16.8864 137.278 16.8864ZM170.662 6.18182V76H156.139V6.18182H170.662ZM201.591 76.8523C197.614 76.8523 194.023 75.8295 190.818 73.7841C187.614 71.7159 185.068 68.6818 183.182 64.6818C181.295 60.6591 180.352 55.7273 180.352 49.8864C180.352 43.8864 181.318 38.8977 183.25 34.9205C185.205 30.9205 187.784 27.9318 190.989 25.9545C194.216 23.9545 197.739 22.9545 201.557 22.9545C204.489 22.9545 206.932 23.4545 208.886 24.4545C210.864 25.4318 212.455 26.6477 213.659 28.1023C214.886 29.5568 215.818 31 216.455 32.4318H216.898V6.18182H231.386V76H217.068V67.6136H216.455C215.795 69.0682 214.841 70.5114 213.591 71.9432C212.341 73.3523 210.727 74.5227 208.75 75.4545C206.795 76.3864 204.409 76.8523 201.591 76.8523ZM206.193 65.2955C209.693 65.2955 212.398 63.8864 214.307 61.0682C216.239 58.2273 217.205 54.4773 217.205 49.8182C217.205 45.1364 216.25 41.4205 214.341 38.6705C212.432 35.8977 209.716 34.5114 206.193 34.5114C202.602 34.5114 199.864 35.9318 197.977 38.7727C196.114 41.5909 195.182 45.2727 195.182 49.8182C195.182 54.3864 196.125 58.1136 198.011 61C199.898 63.8636 202.625 65.2955 206.193 65.2955ZM318.361 193.023C313.065 193.023 308.486 191.898 304.622 189.648C300.781 187.375 297.815 184.216 295.724 180.17C293.634 176.102 292.588 171.386 292.588 166.023C292.588 160.614 293.634 155.886 295.724 151.841C297.815 147.773 300.781 144.614 304.622 142.364C308.486 140.091 313.065 138.955 318.361 138.955C323.656 138.955 328.224 140.091 332.065 142.364C335.929 144.614 338.906 147.773 340.997 151.841C343.088 155.886 344.134 160.614 344.134 166.023C344.134 171.386 343.088 176.102 340.997 180.17C338.906 184.216 335.929 187.375 332.065 189.648C328.224 191.898 323.656 193.023 318.361 193.023ZM318.429 181.773C322.02 181.773 324.736 180.273 326.577 177.273C328.44 174.273 329.372 170.489 329.372 165.92C329.372 161.352 328.44 157.568 326.577 154.568C324.736 151.545 322.02 150.034 318.429 150.034C314.77 150.034 312.009 151.545 310.145 154.568C308.281 157.568 307.349 161.352 307.349 165.92C307.349 170.489 308.281 174.273 310.145 177.273C312.009 180.273 314.77 181.773 318.429 181.773ZM368.099 161.727V192H353.577V139.636H367.418V148.875H368.031C369.213 145.83 371.156 143.42 373.861 141.648C376.588 139.852 379.895 138.955 383.781 138.955C389.236 138.955 393.611 140.716 396.906 144.239C400.202 147.739 401.849 152.545 401.849 158.659V192H387.327V161.25C387.349 158.045 386.531 155.545 384.872 153.75C383.213 151.932 380.929 151.023 378.02 151.023C375.088 151.023 372.702 151.966 370.861 153.852C369.043 155.716 368.122 158.341 368.099 161.727ZM427.818 122.182V192H413.295V122.182H427.818ZM439.452 192V139.636H453.974V192H439.452ZM446.747 132.886C444.611 132.886 442.77 132.17 441.224 130.739C439.679 129.284 438.906 127.545 438.906 125.523C438.906 123.5 439.679 121.773 441.224 120.341C442.77 118.909 444.611 118.193 446.747 118.193C448.906 118.193 450.759 118.909 452.304 120.341C453.849 121.773 454.622 123.5 454.622 125.523C454.622 127.545 453.849 129.284 452.304 130.739C450.759 132.17 448.906 132.886 446.747 132.886ZM480.131 161.727V192H465.608V139.636H479.449V148.875H480.062C481.244 145.83 483.188 143.42 485.892 141.648C488.619 139.852 491.926 138.955 495.812 138.955C501.267 138.955 505.642 140.716 508.938 144.239C512.233 147.739 513.881 152.545 513.881 158.659V192H499.358V161.25C499.381 158.045 498.563 155.545 496.903 153.75C495.244 151.932 492.96 151.023 490.051 151.023C487.119 151.023 484.733 151.966 482.892 153.852C481.074 155.716 480.153 158.341 480.131 161.727ZM549.19 193.023C543.827 193.023 539.202 191.932 535.315 189.75C531.429 187.545 528.44 184.432 526.349 180.409C524.259 176.364 523.213 171.58 523.213 166.057C523.213 160.67 524.259 155.943 526.349 151.875C528.44 147.807 531.384 144.636 535.179 142.364C538.997 140.091 543.474 138.955 548.611 138.955C553.224 138.955 557.384 139.932 561.088 141.886C564.815 143.841 567.77 146.795 569.952 150.75C572.134 154.682 573.224 159.614 573.224 165.545V169.534H537.565V169.568C537.565 173.477 538.634 176.557 540.77 178.807C542.906 181.057 545.793 182.182 549.429 182.182C551.861 182.182 553.963 181.67 555.736 180.648C557.509 179.625 558.759 178.114 559.486 176.114L572.918 177C571.895 181.864 569.304 185.75 565.145 188.659C560.986 191.568 555.668 193.023 549.19 193.023ZM537.565 160.534H559.554C559.531 157.42 558.531 154.852 556.554 152.83C554.577 150.807 552.009 149.795 548.849 149.795C545.622 149.795 542.974 150.841 540.906 152.932C538.838 155.023 537.724 157.557 537.565 160.534Z" fill="white"/>
<path d="M7.06818 76H5.06818V78H7.06818V76ZM7.06818 6.18182V4.18182H5.06818V6.18182H7.06818ZM52.375 11.2273L51.0617 12.7357L51.0712 12.7439L52.375 11.2273ZM54.625 34.0682L56.078 35.4426L56.0841 35.4361L54.625 34.0682ZM45.5909 39.0795L45.1519 37.1283L43.5909 37.4795V39.0795H45.5909ZM45.5909 39.7614H43.5909V41.6777L45.5055 41.7595L45.5909 39.7614ZM53.0568 42.0114L52.0303 43.7278L52.0377 43.7322L53.0568 42.0114ZM58.75 47.8068L57.0253 48.8195L57.0253 48.8195L58.75 47.8068ZM58.1705 66.625L56.4804 65.5555L56.4745 65.565L58.1705 66.625ZM50.0909 73.5114L50.9342 75.3249L50.9436 75.3205L50.0909 73.5114ZM21.8295 63.9318H19.8295V65.9318H21.8295V63.9318ZM42.8636 61.5455L41.5742 60.0166L41.5651 60.0243L42.8636 61.5455ZM42.5909 48.1477L41.253 49.6343L41.2612 49.6416L42.5909 48.1477ZM21.8295 45.3864V43.3864H19.8295V45.3864H21.8295ZM21.8295 35.3977H19.8295V37.3977H21.8295V35.3977ZM40.3068 33.0455L41.5409 34.6194L41.5519 34.6107L40.3068 33.0455ZM40.6136 20.4318L39.2993 21.9394L39.3089 21.9476L40.6136 20.4318ZM21.8295 18.1136V16.1136H19.8295V18.1136H21.8295ZM9.06818 76V6.18182H5.06818V76H9.06818ZM7.06818 8.18182H35.0227V4.18182H7.06818V8.18182ZM35.0227 8.18182C42.48 8.18182 47.7073 9.81539 51.0618 12.7357L53.6882 9.71882C49.3154 5.91188 42.9746 4.18182 35.0227 4.18182V8.18182ZM51.0712 12.7439C54.5056 15.6962 56.2045 19.4217 56.2045 24.0795H60.2045C60.2045 18.2828 58.0172 13.4401 53.6788 9.71064L51.0712 12.7439ZM56.2045 24.0795C56.2045 27.782 55.1437 30.5907 53.1659 32.7003L56.0841 35.4361C58.879 32.4548 60.2045 28.6044 60.2045 24.0795H56.2045ZM53.1721 32.6938C51.0791 34.9063 48.4303 36.3907 45.1519 37.1283L46.0299 41.0308C50.0242 40.132 53.3981 38.2755 56.0779 35.4426L53.1721 32.6938ZM43.5909 39.0795V39.7614H47.5909V39.0795H43.5909ZM45.5055 41.7595C47.8272 41.8588 49.9931 42.5095 52.0303 43.7278L54.0833 40.2949C51.4842 38.7405 48.6728 37.8912 45.6763 37.7632L45.5055 41.7595ZM52.0377 43.7322C54.0708 44.9363 55.7323 46.6173 57.0253 48.8195L60.4747 46.7942C58.8586 44.0418 56.7246 41.8591 54.076 40.2905L52.0377 43.7322ZM57.0253 48.8195C58.2662 50.9329 58.9318 53.5338 58.9318 56.7045H62.9318C62.9318 52.9662 62.1429 49.6353 60.4747 46.7942L57.0253 48.8195ZM58.9318 56.7045C58.9318 60.0605 58.1034 62.9909 56.4804 65.5555L59.8605 67.6945C61.9194 64.441 62.9318 60.7577 62.9318 56.7045H58.9318ZM56.4745 65.565C54.8888 68.102 52.5125 70.1589 49.2382 71.7022L50.9436 75.3205C54.8056 73.5002 57.8157 70.9661 59.8665 67.685L56.4745 65.565ZM49.2477 71.6978C46.0154 73.2007 41.9248 74 36.8977 74V78C42.3252 78 47.0301 77.1402 50.9341 75.3249L49.2477 71.6978ZM36.8977 74H7.06818V78H36.8977V74ZM21.8295 65.9318H33.8636V61.9318H21.8295V65.9318ZM33.8636 65.9318C38.1748 65.9318 41.7593 65.1178 44.1622 63.0666L41.5651 60.0243C40.2407 61.1549 37.8252 61.9318 33.8636 61.9318V65.9318ZM44.153 63.0743C46.5196 61.0785 47.6932 58.4019 47.6932 55.2386H43.6932C43.6932 57.3027 42.9804 58.8306 41.5742 60.0166L44.153 63.0743ZM47.6932 55.2386C47.6932 51.809 46.4353 48.8922 43.9207 46.6538L41.2612 49.6416C42.8828 51.0851 43.6932 52.8955 43.6932 55.2386H47.6932ZM43.9288 46.6611C41.42 44.4032 38.0974 43.3864 34.2045 43.3864V47.3864C37.4026 47.3864 39.6709 48.2104 41.253 49.6343L43.9288 46.6611ZM34.2045 43.3864H21.8295V47.3864H34.2045V43.3864ZM19.8295 45.3864V63.9318H23.8295V45.3864H19.8295ZM21.8295 37.3977H32.7727V33.3977H21.8295V37.3977ZM32.7727 37.3977C36.155 37.3977 39.1254 36.5133 41.5409 34.6193L39.0728 31.4716C37.4883 32.714 35.4359 33.3977 32.7727 33.3977V37.3977ZM41.5519 34.6107C44.0691 32.6083 45.3068 29.8403 45.3068 26.5341H41.3068C41.3068 28.7279 40.5446 30.3008 39.0618 31.4803L41.5519 34.6107ZM45.3068 26.5341C45.3068 23.4719 44.1868 20.8686 41.9184 18.916L39.3089 21.9476C40.6314 23.086 41.3068 24.5508 41.3068 26.5341H45.3068ZM41.9279 18.9243C39.6703 16.9561 36.6127 16.1136 33.0455 16.1136V20.1136C36.0236 20.1136 38.0116 20.8166 39.2994 21.9394L41.9279 18.9243ZM33.0455 16.1136H21.8295V20.1136H33.0455V16.1136ZM19.8295 18.1136V35.3977H23.8295V18.1136H19.8295ZM103.844 53.7045L101.844 53.7045L101.844 53.7175L103.844 53.7045ZM103.844 23.6364V21.6364H101.844V23.6364H103.844ZM118.366 23.6364H120.366V21.6364H118.366V23.6364ZM118.366 76V78H120.366V76H118.366ZM104.423 76H102.423V78H104.423V76ZM104.423 66.4886H106.423V64.4886H104.423V66.4886ZM103.878 66.4886V64.4886H102.505L102.012 65.7698L103.878 66.4886ZM97.9801 73.8864L96.8581 72.2307L96.8517 72.2351L97.9801 73.8864ZM75.1733 71.4318L73.7033 72.788L73.7124 72.7978L75.1733 71.4318ZM70.2642 56.9773H68.2642L68.2642 56.9847L70.2642 56.9773ZM70.2642 23.6364V21.6364H68.2642V23.6364H70.2642ZM84.7869 23.6364H86.7869V21.6364H84.7869V23.6364ZM84.7869 54.3864H82.7869V54.3937L82.787 54.4011L84.7869 54.3864ZM87.2756 61.7159L88.7538 60.3687L88.7538 60.3687L87.2756 61.7159ZM100.81 61.6818L99.4809 60.187L99.4727 60.1944L100.81 61.6818ZM105.844 53.7045V23.6364H101.844V53.7045H105.844ZM103.844 25.6364H118.366V21.6364H103.844V25.6364ZM116.366 23.6364V76H120.366V23.6364H116.366ZM118.366 74H104.423V78H118.366V74ZM106.423 76V66.4886H102.423V76H106.423ZM104.423 64.4886H103.878V68.4886H104.423V64.4886ZM102.012 65.7698C100.978 68.4528 99.274 70.5935 96.8581 72.2307L99.1021 75.542C102.186 73.4519 104.414 70.6608 105.744 67.2075L102.012 65.7698ZM96.8517 72.2351C94.5161 73.8311 91.5988 74.6818 87.9915 74.6818V78.6818C92.2478 78.6818 95.9896 77.6689 99.1085 75.5377L96.8517 72.2351ZM87.9915 74.6818C83.2107 74.6818 79.4885 73.1184 76.6341 70.0658L73.7124 72.7978C77.4036 76.7452 82.2268 78.6818 87.9915 78.6818V74.6818ZM76.6433 70.0757C73.818 67.0133 72.2856 62.7261 72.2642 56.9698L68.2642 56.9847C68.2883 63.4557 70.0286 68.8049 73.7033 72.788L76.6433 70.0757ZM72.2642 56.9773V23.6364H68.2642V56.9773H72.2642ZM70.2642 25.6364H84.7869V21.6364H70.2642V25.6364ZM82.7869 23.6364V54.3864H86.7869V23.6364H82.7869ZM82.787 54.4011C82.8123 57.8464 83.7458 60.812 85.7974 63.0631L88.7538 60.3687C87.5327 59.0289 86.807 57.1081 86.7869 54.3717L82.787 54.4011ZM85.7974 63.0631C87.8647 65.3315 90.6247 66.4091 93.8551 66.4091V62.4091C91.5856 62.4091 89.9591 61.6913 88.7538 60.3687L85.7974 63.0631ZM93.8551 66.4091C96.984 66.4091 99.7732 65.3027 102.147 63.1692L99.4727 60.1944C97.8007 61.6973 95.9535 62.4091 93.8551 62.4091V66.4091ZM102.138 63.1766C104.728 60.8748 105.869 57.5954 105.844 53.6916L101.844 53.7175C101.864 56.8137 100.982 58.8524 99.4809 60.187L102.138 63.1766ZM129.983 76H127.983V78H129.983V76ZM129.983 23.6364V21.6364H127.983V23.6364H129.983ZM144.506 23.6364H146.506V21.6364H144.506V23.6364ZM144.506 76V78H146.506V76H144.506ZM131.756 14.7386L130.385 16.195L130.391 16.2004L130.396 16.2058L131.756 14.7386ZM131.756 4.34091L133.115 5.80803L133.115 5.80803L131.756 4.34091ZM142.835 4.34091L141.476 5.80803L141.476 5.80803L142.835 4.34091ZM142.835 14.7386L144.194 16.2058L144.2 16.2004L144.206 16.195L142.835 14.7386ZM131.983 76V23.6364H127.983V76H131.983ZM129.983 25.6364H144.506V21.6364H129.983V25.6364ZM142.506 23.6364V76H146.506V23.6364H142.506ZM144.506 74H129.983V78H144.506V74ZM137.278 14.8864C135.638 14.8864 134.285 14.3555 133.115 13.2715L130.396 16.2058C132.317 17.9854 134.646 18.8864 137.278 18.8864V14.8864ZM133.126 13.2822C131.96 12.1847 131.438 10.9642 131.438 9.52272H127.438C127.438 12.1267 128.46 14.3834 130.385 16.195L133.126 13.2822ZM131.438 9.52272C131.438 8.08252 131.959 6.87911 133.115 5.80803L130.396 2.87378C128.462 4.66634 127.438 6.91747 127.438 9.52272H131.438ZM133.115 5.80803C134.285 4.72407 135.638 4.19318 137.278 4.19318V0.193178C134.646 0.193178 132.317 1.0941 130.396 2.87379L133.115 5.80803ZM137.278 4.19318C138.947 4.19318 140.31 4.72807 141.476 5.80803L144.194 2.87379C142.269 1.09011 139.928 0.193178 137.278 0.193178V4.19318ZM141.476 5.80803C142.632 6.87911 143.153 8.08252 143.153 9.52272H147.153C147.153 6.91747 146.129 4.66634 144.194 2.87378L141.476 5.80803ZM143.153 9.52272C143.153 10.9642 142.631 12.1847 141.464 13.2822L144.206 16.195C146.131 14.3834 147.153 12.1267 147.153 9.52272H143.153ZM141.476 13.2715C140.31 14.3515 138.947 14.8864 137.278 14.8864V18.8864C139.928 18.8864 142.269 17.9894 144.194 16.2058L141.476 13.2715ZM170.662 6.18182H172.662V4.18182H170.662V6.18182ZM170.662 76V78H172.662V76H170.662ZM156.139 76H154.139V78H156.139V76ZM156.139 6.18182V4.18182H154.139V6.18182H156.139ZM168.662 6.18182V76H172.662V6.18182H168.662ZM170.662 74H156.139V78H170.662V74ZM158.139 76V6.18182H154.139V76H158.139ZM156.139 8.18182H170.662V4.18182H156.139V8.18182ZM190.818 73.7841L189.734 75.4645L189.742 75.4699L190.818 73.7841ZM183.182 64.6818L181.371 65.5309L181.373 65.5349L183.182 64.6818ZM183.25 34.9205L181.453 34.0424L181.451 34.0466L183.25 34.9205ZM190.989 25.9545L192.039 27.6566L192.042 27.6546L190.989 25.9545ZM208.886 24.4545L207.975 26.235L207.988 26.2414L208 26.2475L208.886 24.4545ZM213.659 28.1023L212.119 29.3779L212.125 29.385L212.131 29.392L213.659 28.1023ZM216.455 32.4318L214.627 33.2441L215.155 34.4318H216.455V32.4318ZM216.898 32.4318V34.4318H218.898V32.4318H216.898ZM216.898 6.18182V4.18182H214.898V6.18182H216.898ZM231.386 6.18182H233.386V4.18182H231.386V6.18182ZM231.386 76V78H233.386V76H231.386ZM217.068 76H215.068V78H217.068V76ZM217.068 67.6136H219.068V65.6136H217.068V67.6136ZM216.455 67.6136V65.6136H215.165L214.633 66.7882L216.455 67.6136ZM213.591 71.9432L215.087 73.2704L215.092 73.2645L215.098 73.2585L213.591 71.9432ZM208.75 75.4545L207.897 73.6454L207.889 73.6492L208.75 75.4545ZM214.307 61.0682L212.653 59.9436L212.651 59.9465L214.307 61.0682ZM214.341 38.6705L212.694 39.8047L212.698 39.811L214.341 38.6705ZM197.977 38.7727L196.311 37.6664L196.309 37.6695L197.977 38.7727ZM198.011 61L196.337 62.0942L196.341 62.1002L198.011 61ZM201.591 74.8523C197.976 74.8523 194.762 73.9288 191.894 72.0982L189.742 75.4699C193.283 77.7303 197.251 78.8523 201.591 78.8523V74.8523ZM191.903 72.1037C189.06 70.2688 186.744 67.5456 184.991 63.8287L181.373 65.5349C183.393 69.818 186.168 73.1631 189.734 75.4645L191.903 72.1037ZM184.993 63.8327C183.264 60.1455 182.352 55.5221 182.352 49.8864H178.352C178.352 55.9324 179.327 61.1727 181.371 65.5309L184.993 63.8327ZM182.352 49.8864C182.352 44.0866 183.288 39.42 185.049 35.7943L181.451 34.0466C179.348 38.3754 178.352 43.6861 178.352 49.8864H182.352ZM185.047 35.7985C186.866 32.0754 189.211 29.4016 192.039 27.6566L189.938 24.2525C186.357 26.4621 183.543 29.7655 181.453 34.0424L185.047 35.7985ZM192.042 27.6546C194.951 25.8518 198.109 24.9545 201.557 24.9545V20.9545C197.369 20.9545 193.481 22.0573 189.935 24.2545L192.042 27.6546ZM201.557 24.9545C204.274 24.9545 206.381 25.4194 207.975 26.235L209.797 22.674C207.482 21.4897 204.704 20.9545 201.557 20.9545V24.9545ZM208 26.2475C209.767 27.1209 211.121 28.1732 212.119 29.3779L215.199 26.8266C213.788 25.1223 211.96 23.7427 209.773 22.6616L208 26.2475ZM212.131 29.392C213.261 30.7321 214.082 32.017 214.627 33.2441L218.282 31.6195C217.555 29.983 216.512 28.3816 215.188 26.8125L212.131 29.392ZM216.455 34.4318H216.898V30.4318H216.455V34.4318ZM218.898 32.4318V6.18182H214.898V32.4318H218.898ZM216.898 8.18182H231.386V4.18182H216.898V8.18182ZM229.386 6.18182V76H233.386V6.18182H229.386ZM231.386 74H217.068V78H231.386V74ZM219.068 76V67.6136H215.068V76H219.068ZM217.068 65.6136H216.455V69.6136H217.068V65.6136ZM214.633 66.7882C214.068 68.0349 213.23 69.316 212.084 70.6279L215.098 73.2585C216.452 71.7067 217.523 70.1014 218.276 68.4391L214.633 66.7882ZM212.095 70.616C211.051 71.7926 209.669 72.8106 207.897 73.6454L209.603 77.2637C211.786 76.2348 213.631 74.9119 215.087 73.2704L212.095 70.616ZM207.889 73.6492C206.272 74.4203 204.198 74.8523 201.591 74.8523V78.8523C204.621 78.8523 207.319 78.3524 209.611 77.2599L207.889 73.6492ZM206.193 67.2955C210.334 67.2955 213.669 65.5757 215.963 62.1899L212.651 59.9465C211.126 62.1971 209.052 63.2955 206.193 63.2955V67.2955ZM215.961 62.1928C218.185 58.9211 219.205 54.7389 219.205 49.8182H215.205C215.205 54.2156 214.292 57.5335 212.653 59.9436L215.961 62.1928ZM219.205 49.8182C219.205 44.8859 218.201 40.7242 215.984 37.5299L212.698 39.811C214.299 42.1167 215.205 45.3868 215.205 49.8182H219.205ZM215.988 37.5363C213.686 34.1922 210.338 32.5114 206.193 32.5114V36.5114C209.094 36.5114 211.178 37.6032 212.694 39.8047L215.988 37.5363ZM206.193 32.5114C201.975 32.5114 198.591 34.2329 196.311 37.6664L199.643 39.879C201.136 37.6308 203.23 36.5114 206.193 36.5114V32.5114ZM196.309 37.6695C194.166 40.9102 193.182 45.0127 193.182 49.8182H197.182C197.182 45.5328 198.061 42.2717 199.646 39.8759L196.309 37.6695ZM193.182 49.8182C193.182 54.6512 194.179 58.7924 196.337 62.0941L199.686 59.9059C198.071 57.4349 197.182 54.1215 197.182 49.8182H193.182ZM196.341 62.1002C198.615 65.5524 201.985 67.2955 206.193 67.2955V63.2955C203.265 63.2955 201.18 62.1749 199.682 59.8998L196.341 62.1002ZM269.33 95.125L268.992 97.0963L268.996 97.097L269.33 95.125ZM265.375 94.0682L263.46 93.4918L262.938 95.2255L264.611 95.9167L265.375 94.0682ZM268.648 83.1932L269.239 81.2827L267.314 80.6862L266.733 82.6168L268.648 83.1932ZM275.125 83.8068L274.723 81.8476L274.708 81.8506L274.694 81.8538L275.125 83.8068ZM279.318 79.7159L281.154 80.5101L281.17 80.4723L281.185 80.4339L279.318 79.7159ZM280.17 77.5L282.037 78.218L282.3 77.5337L282.059 76.8414L280.17 77.5ZM261.386 23.6364V21.6364H258.571L259.498 24.2949L261.386 23.6364ZM276.659 23.6364L278.584 23.0937L278.173 21.6364H276.659V23.6364ZM287.5 62.0909L285.575 62.6336L285.986 64.0909H287.5V62.0909ZM288.045 62.0909V64.0909H289.556L289.969 62.6383L288.045 62.0909ZM298.989 23.6364L298.998 21.6364L297.48 21.6297L297.065 23.0889L298.989 23.6364ZM314.364 23.7045L316.251 24.3672L317.181 21.717L314.373 21.7046L314.364 23.7045ZM294.011 81.6591L292.124 80.9964L292.122 81.002L294.011 81.6591ZM287.227 91.7159L285.957 90.171L285.95 90.1767L287.227 91.7159ZM274.511 93.5341C272.769 93.5341 271.154 93.4049 269.663 93.153L268.996 97.097C270.733 97.3905 272.572 97.5341 274.511 97.5341V93.5341ZM269.667 93.1538C268.166 92.8964 267.003 92.5766 266.139 92.2197L264.611 95.9167C265.838 96.4234 267.311 96.8082 268.992 97.0962L269.667 93.1538ZM267.29 94.6445L270.563 83.7695L266.733 82.6168L263.46 93.4918L267.29 94.6445ZM268.056 85.1036C270.802 85.9543 273.339 86.2493 275.556 85.7598L274.694 81.8538C273.411 82.1371 271.629 82.023 269.239 81.2827L268.056 85.1036ZM275.527 85.766C278.182 85.2213 279.989 83.2011 281.154 80.5101L277.483 78.9217C276.602 80.958 275.613 81.6651 274.723 81.8476L275.527 85.766ZM281.185 80.4339L282.037 78.218L278.304 76.782L277.451 78.998L281.185 80.4339ZM282.059 76.8414L263.275 22.9778L259.498 24.2949L278.282 78.1586L282.059 76.8414ZM261.386 25.6364H276.659V21.6364H261.386V25.6364ZM274.734 24.179L285.575 62.6336L289.425 61.5482L278.584 23.0937L274.734 24.179ZM287.5 64.0909H288.045V60.0909H287.5V64.0909ZM289.969 62.6383L300.912 24.1838L297.065 23.0889L286.122 61.5435L289.969 62.6383ZM298.98 25.6363L314.355 25.7045L314.373 21.7046L298.998 21.6364L298.98 25.6363ZM312.477 23.0419L292.124 80.9964L295.898 82.3218L316.251 24.3672L312.477 23.0419ZM292.122 81.002C290.774 84.8776 288.71 87.9079 285.957 90.1711L288.497 93.2608C291.881 90.4785 294.339 86.8042 295.9 82.3161L292.122 81.002ZM285.95 90.1767C283.351 92.3331 279.62 93.5341 274.511 93.5341V97.5341C280.22 97.5341 284.967 96.1896 288.504 93.2552L285.95 90.1767ZM329.935 73.6477L328.916 75.369L328.928 75.376L329.935 73.6477ZM321.037 64.1705L319.258 65.0847L319.26 65.0888L321.037 64.1705ZM321.037 35.8409L322.814 36.7592L322.816 36.7552L321.037 35.8409ZM329.935 26.3636L330.946 28.0893L330.949 28.0875L329.935 26.3636ZM357.378 26.3636L356.359 28.0849L356.371 28.0919L357.378 26.3636ZM366.31 35.8409L364.531 36.7552L364.533 36.7592L366.31 35.8409ZM366.31 64.1705L368.086 65.0888L368.088 65.0847L366.31 64.1705ZM357.378 73.6477L358.389 75.3734L358.392 75.3716L357.378 73.6477ZM351.889 61.2727L350.19 60.2173L350.185 60.2267L351.889 61.2727ZM351.889 38.5682L350.181 39.6085L350.186 39.616L350.19 39.6235L351.889 38.5682ZM335.457 38.5682L337.156 39.6236L337.16 39.6178L335.457 38.5682ZM335.457 61.2727L333.759 62.3281L333.759 62.3281L335.457 61.2727ZM343.673 75.0227C338.666 75.0227 334.447 73.9612 330.941 71.9194L328.928 75.376C333.149 77.8343 338.09 79.0227 343.673 79.0227V75.0227ZM330.953 71.9265C327.442 69.849 324.736 66.9713 322.814 63.2522L319.26 65.0888C321.52 69.4605 324.745 72.901 328.916 75.369L330.953 71.9265ZM322.816 63.2562C320.893 59.5159 319.901 55.1232 319.901 50.0227H315.901C315.901 55.6495 316.999 60.6887 319.258 65.0847L322.816 63.2562ZM319.901 50.0227C319.901 44.8735 320.895 40.4721 322.814 36.7592L319.26 34.9226C316.997 39.3006 315.901 44.3538 315.901 50.0227H319.901ZM322.816 36.7552C324.738 33.0151 327.442 30.1418 330.946 28.0893L328.924 24.6379C324.746 27.0855 321.518 30.5304 319.258 34.9267L322.816 36.7552ZM330.949 28.0875C334.453 26.026 338.669 24.9545 343.673 24.9545V20.9545C338.086 20.9545 333.143 22.1558 328.921 24.6398L330.949 28.0875ZM343.673 24.9545C348.678 24.9545 352.88 26.0261 356.359 28.0849L358.396 24.6424C354.194 22.1557 349.26 20.9545 343.673 20.9545V24.9545ZM356.371 28.0919C359.897 30.1452 362.61 33.0182 364.531 36.7552L368.088 34.9267C365.827 30.5273 362.586 27.0821 358.384 24.6353L356.371 28.0919ZM364.533 36.7592C366.452 40.4721 367.446 44.8735 367.446 50.0227H371.446C371.446 44.3538 370.349 39.3006 368.086 34.9226L364.533 36.7592ZM367.446 50.0227C367.446 55.1232 366.453 59.5159 364.531 63.2562L368.088 65.0847C370.348 60.6887 371.446 55.6495 371.446 50.0227H367.446ZM364.533 63.2522C362.612 66.9682 359.897 69.8456 356.364 71.9239L358.392 75.3716C362.586 72.9044 365.825 69.4636 368.086 65.0888L364.533 63.2522ZM356.367 71.922C352.886 73.961 348.681 75.0227 343.673 75.0227V79.0227C349.256 79.0227 354.188 77.8344 358.389 75.3734L356.367 71.922ZM343.741 67.7727C348.011 67.7727 351.38 65.926 353.594 62.3188L350.185 60.2267C348.716 62.6195 346.654 63.7727 343.741 63.7727V67.7727ZM353.588 62.3281C355.699 58.9308 356.685 54.754 356.685 49.9205H352.685C352.685 54.2233 351.807 57.6146 350.19 60.2174L353.588 62.3281ZM356.685 49.9205C356.685 45.0869 355.699 40.9101 353.588 37.5128L350.19 39.6235C351.807 42.2263 352.685 45.6176 352.685 49.9205H356.685ZM353.597 37.5279C351.387 33.8986 348.018 32.0341 343.741 32.0341V36.0341C346.647 36.0341 348.71 37.1924 350.181 39.6085L353.597 37.5279ZM343.741 32.0341C339.414 32.0341 335.996 33.8836 333.755 37.5186L337.16 39.6178C338.646 37.2073 340.751 36.0341 343.741 36.0341V32.0341ZM333.759 37.5128C331.648 40.9101 330.662 45.0869 330.662 49.9205H334.662C334.662 45.6176 335.539 42.2263 337.156 39.6235L333.759 37.5128ZM330.662 49.9205C330.662 54.754 331.648 58.9308 333.759 62.3281L337.156 60.2174C335.539 57.6146 334.662 54.2233 334.662 49.9205H330.662ZM333.759 62.3281C336.003 65.9408 339.421 67.7727 343.741 67.7727V63.7727C340.744 63.7727 338.639 62.6047 337.156 60.2174L333.759 62.3281ZM412.469 53.7045L410.469 53.7045L410.469 53.7175L412.469 53.7045ZM412.469 23.6364V21.6364H410.469V23.6364H412.469ZM426.991 23.6364H428.991V21.6364H426.991V23.6364ZM426.991 76V78H428.991V76H426.991ZM413.048 76H411.048V78H413.048V76ZM413.048 66.4886H415.048V64.4886H413.048V66.4886ZM412.503 66.4886V64.4886H411.13L410.637 65.7698L412.503 66.4886ZM406.605 73.8864L405.483 72.2307L405.477 72.2351L406.605 73.8864ZM383.798 71.4318L382.328 72.788L382.337 72.7978L383.798 71.4318ZM378.889 56.9773H376.889L376.889 56.9847L378.889 56.9773ZM378.889 23.6364V21.6364H376.889V23.6364H378.889ZM393.412 23.6364H395.412V21.6364H393.412V23.6364ZM393.412 54.3864H391.412V54.3937L391.412 54.4011L393.412 54.3864ZM395.901 61.7159L397.379 60.3687L397.379 60.3687L395.901 61.7159ZM409.435 61.6818L408.106 60.187L408.098 60.1944L409.435 61.6818ZM414.469 53.7045V23.6364H410.469V53.7045H414.469ZM412.469 25.6364H426.991V21.6364H412.469V25.6364ZM424.991 23.6364V76H428.991V23.6364H424.991ZM426.991 74H413.048V78H426.991V74ZM415.048 76V66.4886H411.048V76H415.048ZM413.048 64.4886H412.503V68.4886H413.048V64.4886ZM410.637 65.7698C409.603 68.4528 407.899 70.5935 405.483 72.2307L407.727 75.542C410.811 73.4519 413.039 70.6608 414.369 67.2075L410.637 65.7698ZM405.477 72.2351C403.141 73.8311 400.224 74.6818 396.616 74.6818V78.6818C400.873 78.6818 404.615 77.6689 407.733 75.5377L405.477 72.2351ZM396.616 74.6818C391.836 74.6818 388.113 73.1184 385.259 70.0658L382.337 72.7978C386.029 76.7452 390.852 78.6818 396.616 78.6818V74.6818ZM385.268 70.0757C382.443 67.0133 380.911 62.7261 380.889 56.9698L376.889 56.9847C376.913 63.4557 378.654 68.8049 382.328 72.788L385.268 70.0757ZM380.889 56.9773V23.6364H376.889V56.9773H380.889ZM378.889 25.6364H393.412V21.6364H378.889V25.6364ZM391.412 23.6364V54.3864H395.412V23.6364H391.412ZM391.412 54.4011C391.437 57.8464 392.371 60.812 394.422 63.0631L397.379 60.3687C396.158 59.0289 395.432 57.1081 395.412 54.3717L391.412 54.4011ZM394.422 63.0631C396.49 65.3315 399.25 66.4091 402.48 66.4091V62.4091C400.211 62.4091 398.584 61.6913 397.379 60.3687L394.422 63.0631ZM402.48 66.4091C405.609 66.4091 408.398 65.3027 410.772 63.1692L408.098 60.1944C406.426 61.6973 404.579 62.4091 402.48 62.4091V66.4091ZM410.763 63.1766C413.353 60.8748 414.494 57.5954 414.469 53.6916L410.469 53.7175C410.489 56.8137 409.607 58.8524 408.106 60.187L410.763 63.1766ZM438.608 76H436.608V78H438.608V76ZM438.608 23.6364V21.6364H436.608V23.6364H438.608ZM452.688 23.6364H454.688V21.6364H452.688V23.6364ZM452.688 32.7727H450.688V34.7727H452.688V32.7727ZM453.233 32.7727V34.7727H454.73L455.152 33.3363L453.233 32.7727ZM458.04 25.4091L459.227 27.0188L459.237 27.011L458.04 25.4091ZM470.381 23.3977H472.381V21.818L470.844 21.4521L470.381 23.3977ZM470.381 36.2841L469.748 38.1815L472.381 39.0589V36.2841H470.381ZM467.551 35.7386L467.289 37.7214L467.308 37.7239L467.326 37.7259L467.551 35.7386ZM456.267 38.5341L457.649 39.9794L457.65 39.979L456.267 38.5341ZM453.131 76V78H455.131V76H453.131ZM440.608 76V23.6364H436.608V76H440.608ZM438.608 25.6364H452.688V21.6364H438.608V25.6364ZM450.688 23.6364V32.7727H454.688V23.6364H450.688ZM452.688 34.7727H453.233V30.7727H452.688V34.7727ZM455.152 33.3363C456.01 30.4145 457.398 28.3673 459.227 27.0188L456.853 23.7994C454.182 25.7691 452.365 28.631 451.314 32.2091L455.152 33.3363ZM459.237 27.011C461.126 25.5995 463.292 24.8864 465.812 24.8864V20.8864C462.469 20.8864 459.454 21.8551 456.842 23.8072L459.237 27.011ZM465.812 24.8864C467.285 24.8864 468.651 25.0418 469.917 25.3433L470.844 21.4521C469.247 21.0718 467.567 20.8864 465.812 20.8864V24.8864ZM468.381 23.3977V36.2841H472.381V23.3977H468.381ZM471.013 34.3867C470.14 34.0955 469.039 33.8943 467.776 33.7513L467.326 37.7259C468.473 37.8557 469.258 38.0181 469.748 38.1815L471.013 34.3867ZM467.813 33.7559C466.539 33.5876 465.348 33.5 464.244 33.5V37.5C465.141 37.5 466.154 37.5715 467.289 37.7214L467.813 33.7559ZM464.244 33.5C460.578 33.5 457.407 34.6747 454.884 37.0891L457.65 39.979C459.354 38.348 461.501 37.5 464.244 37.5V33.5ZM454.885 37.0888C452.352 39.5115 451.131 42.6713 451.131 46.375H455.131C455.131 43.6242 456.001 41.5566 457.649 39.9794L454.885 37.0888ZM451.131 46.375V76H455.131V46.375H451.131ZM453.131 74H438.608V78H453.131V74ZM17.125 192L15.1952 192.525L15.5965 194H17.125V192ZM2.875 139.636V137.636H0.257994L0.945183 140.162L2.875 139.636ZM17.5682 139.636L19.517 139.187L19.1594 137.636H17.5682V139.636ZM25.6818 174.818L23.733 175.268L24.0906 176.818H25.6818V174.818ZM26.1591 174.818V176.818H27.7354L28.1037 175.285L26.1591 174.818ZM34.6136 139.636V137.636H33.0373L32.669 139.169L34.6136 139.636ZM49.0341 139.636L50.9764 139.159L50.6023 137.636H49.0341V139.636ZM57.625 174.614L55.6827 175.091L56.0568 176.614H57.625V174.614ZM58.0682 174.614V176.614H59.6634L60.0181 175.058L58.0682 174.614ZM66.0455 139.636V137.636H64.4502L64.0955 139.192L66.0455 139.636ZM80.7045 139.636L82.6347 140.16L83.3199 137.636H80.7045V139.636ZM66.4886 192V194H68.0181L68.4188 192.524L66.4886 192ZM51.1136 192L49.1844 192.527L49.5869 194H51.1136V192ZM42.1136 159.068L44.0429 158.541L43.6404 157.068H42.1136V159.068ZM41.4659 159.068V157.068H39.9392L39.5367 158.541L41.4659 159.068ZM32.4659 192V194H33.9927L34.3952 192.527L32.4659 192ZM19.0548 191.475L4.80482 139.111L0.945183 140.162L15.1952 192.525L19.0548 191.475ZM2.875 141.636H17.5682V137.636H2.875V141.636ZM15.6193 140.086L23.733 175.268L27.6307 174.369L19.517 139.187L15.6193 140.086ZM25.6818 176.818H26.1591V172.818H25.6818V176.818ZM28.1037 175.285L36.5583 140.104L32.669 139.169L24.2145 174.351L28.1037 175.285ZM34.6136 141.636H49.0341V137.636H34.6136V141.636ZM47.0918 140.113L55.6827 175.091L59.5673 174.137L50.9764 139.159L47.0918 140.113ZM57.625 176.614H58.0682V172.614H57.625V176.614ZM60.0181 175.058L67.9954 140.081L64.0955 139.192L56.1183 174.169L60.0181 175.058ZM66.0455 141.636H80.7045V137.636H66.0455V141.636ZM78.7744 139.112L64.5585 191.476L68.4188 192.524L82.6347 140.16L78.7744 139.112ZM66.4886 190H51.1136V194H66.4886V190ZM53.0429 191.473L44.0429 158.541L40.1844 159.595L49.1844 192.527L53.0429 191.473ZM42.1136 157.068H41.4659V161.068H42.1136V157.068ZM39.5367 158.541L30.5367 191.473L34.3952 192.527L43.3952 159.595L39.5367 158.541ZM32.4659 190H17.125V194H32.4659V190ZM97.0597 189.648L96.0411 191.369L96.0532 191.376L97.0597 189.648ZM88.1619 180.17L86.3831 181.085L86.3852 181.089L88.1619 180.17ZM88.1619 151.841L89.9387 152.759L89.9407 152.755L88.1619 151.841ZM97.0597 142.364L98.0706 144.089L98.0737 144.088L97.0597 142.364ZM124.503 142.364L123.484 144.085L123.496 144.092L124.503 142.364ZM133.435 151.841L131.656 152.755L131.658 152.759L133.435 151.841ZM133.435 180.17L135.211 181.089L135.213 181.085L133.435 180.17ZM124.503 189.648L125.514 191.373L125.517 191.372L124.503 189.648ZM119.014 177.273L117.315 176.217L117.31 176.227L119.014 177.273ZM119.014 154.568L117.306 155.608L117.311 155.616L117.315 155.624L119.014 154.568ZM102.582 154.568L104.281 155.624L104.285 155.618L102.582 154.568ZM102.582 177.273L100.884 178.328L100.884 178.328L102.582 177.273ZM110.798 191.023C105.791 191.023 101.572 189.961 98.0661 187.919L96.0532 191.376C100.274 193.834 105.215 195.023 110.798 195.023V191.023ZM98.0781 187.926C94.5672 185.849 91.8609 182.971 89.9386 179.252L86.3852 181.089C88.6448 185.461 91.8703 188.901 96.0412 191.369L98.0781 187.926ZM89.9407 179.256C88.0183 175.516 87.0256 171.123 87.0256 166.023H83.0256C83.0256 171.65 84.1237 176.689 86.3831 181.085L89.9407 179.256ZM87.0256 166.023C87.0256 160.873 88.0196 156.472 89.9386 152.759L86.3852 150.923C84.1224 155.301 83.0256 160.354 83.0256 166.023H87.0256ZM89.9407 152.755C91.863 149.015 94.5669 146.142 98.0706 144.089L96.0487 140.638C91.8706 143.085 88.6427 146.53 86.3831 150.927L89.9407 152.755ZM98.0737 144.088C101.578 142.026 105.794 140.955 110.798 140.955V136.955C105.211 136.955 100.268 138.156 96.0456 140.64L98.0737 144.088ZM110.798 140.955C115.803 140.955 120.005 142.026 123.484 144.085L125.521 140.642C121.319 138.156 116.385 136.955 110.798 136.955V140.955ZM123.496 144.092C127.022 146.145 129.735 149.018 131.656 152.755L135.213 150.927C132.952 146.527 129.711 143.082 125.509 140.635L123.496 144.092ZM131.658 152.759C133.577 156.472 134.571 160.873 134.571 166.023H138.571C138.571 160.354 137.474 155.301 135.211 150.923L131.658 152.759ZM134.571 166.023C134.571 171.123 133.578 175.516 131.656 179.256L135.213 181.085C137.473 176.689 138.571 171.65 138.571 166.023H134.571ZM131.658 179.252C129.737 182.968 127.022 185.846 123.489 187.924L125.517 191.372C129.711 188.904 132.95 185.464 135.211 181.089L131.658 179.252ZM123.492 187.922C120.011 189.961 115.806 191.023 110.798 191.023V195.023C116.381 195.023 121.313 193.834 125.514 191.373L123.492 187.922ZM110.866 183.773C115.136 183.773 118.505 181.926 120.719 178.319L117.31 176.227C115.841 178.619 113.779 179.773 110.866 179.773V183.773ZM120.713 178.328C122.824 174.931 123.81 170.754 123.81 165.92H119.81C119.81 170.223 118.932 173.615 117.315 176.217L120.713 178.328ZM123.81 165.92C123.81 161.087 122.824 156.91 120.713 153.513L117.315 155.624C118.932 158.226 119.81 161.618 119.81 165.92H123.81ZM120.722 153.528C118.512 149.899 115.143 148.034 110.866 148.034V152.034C113.772 152.034 115.835 153.192 117.306 155.608L120.722 153.528ZM110.866 148.034C106.539 148.034 103.121 149.884 100.88 153.519L104.285 155.618C105.771 153.207 107.876 152.034 110.866 152.034V148.034ZM100.884 153.513C98.7731 156.91 97.7869 161.087 97.7869 165.92H101.787C101.787 161.618 102.664 158.226 104.281 155.624L100.884 153.513ZM97.7869 165.92C97.7869 170.754 98.7731 174.931 100.884 178.328L104.281 176.217C102.664 173.615 101.787 170.223 101.787 165.92H97.7869ZM100.884 178.328C103.128 181.941 106.546 183.773 110.866 183.773V179.773C107.869 179.773 105.764 178.605 104.281 176.217L100.884 178.328ZM146.014 192H144.014V194H146.014V192ZM146.014 139.636V137.636H144.014V139.636H146.014ZM160.094 139.636H162.094V137.636H160.094V139.636ZM160.094 148.773H158.094V150.773H160.094V148.773ZM160.639 148.773V150.773H162.136L162.558 149.336L160.639 148.773ZM165.446 141.409L166.633 143.019L166.643 143.011L165.446 141.409ZM177.787 139.398H179.787V137.818L178.25 137.452L177.787 139.398ZM177.787 152.284L177.154 154.181L179.787 155.059V152.284H177.787ZM174.957 151.739L174.696 153.721L174.714 153.724L174.732 153.726L174.957 151.739ZM163.673 154.534L165.056 155.979L165.056 155.979L163.673 154.534ZM160.537 192V194H162.537V192H160.537ZM148.014 192V139.636H144.014V192H148.014ZM146.014 141.636H160.094V137.636H146.014V141.636ZM158.094 139.636V148.773H162.094V139.636H158.094ZM160.094 150.773H160.639V146.773H160.094V150.773ZM162.558 149.336C163.416 146.414 164.804 144.367 166.633 143.019L164.259 139.799C161.588 141.769 159.771 144.631 158.72 148.209L162.558 149.336ZM166.643 143.011C168.532 141.599 170.698 140.886 173.219 140.886V136.886C169.875 136.886 166.86 137.855 164.249 139.807L166.643 143.011ZM173.219 140.886C174.691 140.886 176.057 141.042 177.324 141.343L178.25 137.452C176.653 137.072 174.974 136.886 173.219 136.886V140.886ZM175.787 139.398V152.284H179.787V139.398H175.787ZM178.419 150.387C177.546 150.096 176.445 149.894 175.182 149.751L174.732 153.726C175.879 153.856 176.664 154.018 177.154 154.181L178.419 150.387ZM175.219 149.756C173.946 149.588 172.754 149.5 171.651 149.5V153.5C172.547 153.5 173.56 153.571 174.696 153.721L175.219 149.756ZM171.651 149.5C167.984 149.5 164.813 150.675 162.29 153.089L165.056 155.979C166.76 154.348 168.908 153.5 171.651 153.5V149.5ZM162.291 153.089C159.758 155.512 158.537 158.671 158.537 162.375H162.537C162.537 159.624 163.407 157.557 165.056 155.979L162.291 153.089ZM158.537 162.375V192H162.537V162.375H158.537ZM160.537 190H146.014V194H160.537V190ZM199.818 122.182H201.818V120.182H199.818V122.182ZM199.818 192V194H201.818V192H199.818ZM185.295 192H183.295V194H185.295V192ZM185.295 122.182V120.182H183.295V122.182H185.295ZM197.818 122.182V192H201.818V122.182H197.818ZM199.818 190H185.295V194H199.818V190ZM187.295 192V122.182H183.295V192H187.295ZM185.295 124.182H199.818V120.182H185.295V124.182ZM219.974 189.784L218.89 191.465L218.898 191.47L219.974 189.784ZM212.338 180.682L210.527 181.531L210.529 181.535L212.338 180.682ZM212.406 150.92L210.609 150.042L210.607 150.047L212.406 150.92ZM220.145 141.955L221.195 143.657L221.198 143.655L220.145 141.955ZM238.043 140.455L237.132 142.235L237.144 142.241L237.156 142.248L238.043 140.455ZM242.815 144.102L241.275 145.378L241.281 145.385L241.287 145.392L242.815 144.102ZM245.611 148.432L243.783 149.244L244.311 150.432H245.611V148.432ZM246.054 148.432V150.432H248.054V148.432H246.054ZM246.054 122.182V120.182H244.054V122.182H246.054ZM260.543 122.182H262.543V120.182H260.543V122.182ZM260.543 192V194H262.543V192H260.543ZM246.224 192H244.224V194H246.224V192ZM246.224 183.614H248.224V181.614H246.224V183.614ZM245.611 183.614V181.614H244.321L243.789 182.788L245.611 183.614ZM242.747 187.943L244.243 189.27L244.249 189.264L244.254 189.258L242.747 187.943ZM237.906 191.455L237.054 189.645L237.046 189.649L237.906 191.455ZM243.463 177.068L241.809 175.944L241.807 175.946L243.463 177.068ZM243.497 154.67L241.85 155.805L241.854 155.811L243.497 154.67ZM227.134 154.773L225.467 153.666L225.465 153.67L227.134 154.773ZM227.168 177L225.493 178.094L225.497 178.1L227.168 177ZM230.747 190.852C227.133 190.852 223.918 189.929 221.051 188.098L218.898 191.47C222.44 193.73 226.407 194.852 230.747 194.852V190.852ZM221.059 188.104C218.216 186.269 215.9 183.546 214.147 179.829L210.529 181.535C212.549 185.818 215.324 189.163 218.89 191.465L221.059 188.104ZM214.149 179.833C212.42 176.145 211.509 171.522 211.509 165.886H207.509C207.509 171.932 208.484 177.173 210.527 181.531L214.149 179.833ZM211.509 165.886C211.509 160.087 212.444 155.42 214.205 151.794L210.607 150.047C208.505 154.375 207.509 159.686 207.509 165.886H211.509ZM214.203 151.799C216.022 148.075 218.367 145.402 221.195 143.657L219.095 140.252C215.514 142.462 212.699 145.765 210.609 150.042L214.203 151.799ZM221.198 143.655C224.107 141.852 227.265 140.955 230.713 140.955V136.955C226.525 136.955 222.637 138.057 219.091 140.255L221.198 143.655ZM230.713 140.955C233.43 140.955 235.537 141.419 237.132 142.235L238.954 138.674C236.639 137.49 233.86 136.955 230.713 136.955V140.955ZM237.156 142.248C238.924 143.121 240.277 144.173 241.275 145.378L244.356 142.827C242.944 141.122 241.116 139.743 238.929 138.662L237.156 142.248ZM241.287 145.392C242.417 146.732 243.238 148.017 243.783 149.244L247.438 147.62C246.711 145.983 245.668 144.382 244.344 142.813L241.287 145.392ZM245.611 150.432H246.054V146.432H245.611V150.432ZM248.054 148.432V122.182H244.054V148.432H248.054ZM246.054 124.182H260.543V120.182H246.054V124.182ZM258.543 122.182V192H262.543V122.182H258.543ZM260.543 190H246.224V194H260.543V190ZM248.224 192V183.614H244.224V192H248.224ZM246.224 181.614H245.611V185.614H246.224V181.614ZM243.789 182.788C243.224 184.035 242.386 185.316 241.241 186.628L244.254 189.258C245.609 187.707 246.679 186.101 247.433 184.439L243.789 182.788ZM241.251 186.616C240.207 187.793 238.825 188.811 237.054 189.645L238.759 193.264C240.942 192.235 242.787 190.912 244.243 189.27L241.251 186.616ZM237.046 189.649C235.428 190.42 233.354 190.852 230.747 190.852V194.852C233.777 194.852 236.475 194.352 238.767 193.26L237.046 189.649ZM235.349 183.295C239.49 183.295 242.825 181.576 245.119 178.19L241.807 175.946C240.283 178.197 238.208 179.295 235.349 179.295V183.295ZM245.117 178.193C247.342 174.921 248.361 170.739 248.361 165.818H244.361C244.361 170.216 243.448 173.533 241.809 175.944L245.117 178.193ZM248.361 165.818C248.361 160.886 247.358 156.724 245.14 153.53L241.854 155.811C243.455 158.117 244.361 161.387 244.361 165.818H248.361ZM245.144 153.536C242.842 150.192 239.494 148.511 235.349 148.511V152.511C238.25 152.511 240.334 153.603 241.85 155.805L245.144 153.536ZM235.349 148.511C231.131 148.511 227.747 150.233 225.467 153.666L228.8 155.879C230.293 153.631 232.386 152.511 235.349 152.511V148.511ZM225.465 153.67C223.322 156.91 222.338 161.013 222.338 165.818H226.338C226.338 161.533 227.217 158.272 228.802 155.876L225.465 153.67ZM222.338 165.818C222.338 170.651 223.336 174.792 225.493 178.094L228.842 175.906C227.227 173.435 226.338 170.121 226.338 165.818H222.338ZM225.497 178.1C227.771 181.552 231.141 183.295 235.349 183.295V179.295C232.421 179.295 230.337 178.175 228.838 175.9L225.497 178.1ZM304.622 189.648L303.604 191.369L303.616 191.376L304.622 189.648ZM295.724 180.17L293.946 181.085L293.948 181.089L295.724 180.17ZM295.724 151.841L297.501 152.759L297.503 152.755L295.724 151.841ZM304.622 142.364L305.633 144.089L305.636 144.088L304.622 142.364ZM332.065 142.364L331.047 144.085L331.059 144.092L332.065 142.364ZM340.997 151.841L339.218 152.755L339.22 152.759L340.997 151.841ZM340.997 180.17L342.774 181.089L342.776 181.085L340.997 180.17ZM332.065 189.648L333.076 191.373L333.079 191.372L332.065 189.648ZM326.577 177.273L324.878 176.217L324.872 176.227L326.577 177.273ZM326.577 154.568L324.869 155.608L324.873 155.616L324.878 155.624L326.577 154.568ZM310.145 154.568L311.844 155.624L311.847 155.618L310.145 154.568ZM310.145 177.273L308.446 178.328L308.446 178.328L310.145 177.273ZM318.361 191.023C313.353 191.023 309.135 189.961 305.629 187.919L303.616 191.376C307.837 193.834 312.777 195.023 318.361 195.023V191.023ZM305.641 187.926C302.13 185.849 299.423 182.971 297.501 179.252L293.948 181.089C296.207 185.461 299.433 188.901 303.604 191.369L305.641 187.926ZM297.503 179.256C295.581 175.516 294.588 171.123 294.588 166.023H290.588C290.588 171.65 291.686 176.689 293.946 181.085L297.503 179.256ZM294.588 166.023C294.588 160.873 295.582 156.472 297.501 152.759L293.948 150.923C291.685 155.301 290.588 160.354 290.588 166.023H294.588ZM297.503 152.755C299.426 149.015 302.129 146.142 305.633 144.089L303.611 140.638C299.433 143.085 296.205 146.53 293.946 150.927L297.503 152.755ZM305.636 144.088C309.141 142.026 313.357 140.955 318.361 140.955V136.955C312.774 136.955 307.831 138.156 303.608 140.64L305.636 144.088ZM318.361 140.955C323.365 140.955 327.568 142.026 331.047 144.085L333.084 140.642C328.881 138.156 323.947 136.955 318.361 136.955V140.955ZM331.059 144.092C334.585 146.145 337.298 149.018 339.218 152.755L342.776 150.927C340.515 146.527 337.273 143.082 333.072 140.635L331.059 144.092ZM339.22 152.759C341.139 156.472 342.134 160.873 342.134 166.023H346.134C346.134 160.354 345.037 155.301 342.774 150.923L339.22 152.759ZM342.134 166.023C342.134 171.123 341.141 175.516 339.218 179.256L342.776 181.085C345.035 176.689 346.134 171.65 346.134 166.023H342.134ZM339.22 179.252C337.3 182.968 334.584 185.846 331.051 187.924L333.079 191.372C337.274 188.904 340.513 185.464 342.774 181.089L339.22 179.252ZM331.054 187.922C327.574 189.961 323.369 191.023 318.361 191.023V195.023C323.944 195.023 328.875 193.834 333.076 191.373L331.054 187.922ZM318.429 183.773C322.698 183.773 326.068 181.926 328.281 178.319L324.872 176.227C323.404 178.619 321.342 179.773 318.429 179.773V183.773ZM328.276 178.328C330.386 174.931 331.372 170.754 331.372 165.92H327.372C327.372 170.223 326.495 173.615 324.878 176.217L328.276 178.328ZM331.372 165.92C331.372 161.087 330.386 156.91 328.276 153.513L324.878 155.624C326.495 158.226 327.372 161.618 327.372 165.92H331.372ZM328.285 153.528C326.075 149.899 322.705 148.034 318.429 148.034V152.034C321.335 152.034 323.397 153.192 324.869 155.608L328.285 153.528ZM318.429 148.034C314.102 148.034 310.684 149.884 308.442 153.519L311.847 155.618C313.333 153.207 315.438 152.034 318.429 152.034V148.034ZM308.446 153.513C306.336 156.91 305.349 161.087 305.349 165.92H309.349C309.349 161.618 310.227 158.226 311.844 155.624L308.446 153.513ZM305.349 165.92C305.349 170.754 306.336 174.931 308.446 178.328L311.844 176.217C310.227 173.615 309.349 170.223 309.349 165.92H305.349ZM308.446 178.328C310.69 181.941 314.109 183.773 318.429 183.773V179.773C315.431 179.773 313.327 178.605 311.844 176.217L308.446 178.328ZM368.099 161.727L366.099 161.714V161.727H368.099ZM368.099 192V194H370.099V192H368.099ZM353.577 192H351.577V194H353.577V192ZM353.577 139.636V137.636H351.577V139.636H353.577ZM367.418 139.636H369.418V137.636H367.418V139.636ZM367.418 148.875H365.418V150.875H367.418V148.875ZM368.031 148.875V150.875H369.4L369.896 149.599L368.031 148.875ZM373.861 141.648L374.957 143.32L374.961 143.318L373.861 141.648ZM396.906 144.239L395.446 145.605L395.45 145.61L396.906 144.239ZM401.849 192V194H403.849V192H401.849ZM387.327 192H385.327V194H387.327V192ZM387.327 161.25L385.327 161.236L385.327 161.243V161.25H387.327ZM384.872 153.75L383.395 155.098L383.403 155.107L384.872 153.75ZM370.861 153.852L369.429 152.455L369.429 152.456L370.861 153.852ZM366.099 161.727V192H370.099V161.727H366.099ZM368.099 190H353.577V194H368.099V190ZM355.577 192V139.636H351.577V192H355.577ZM353.577 141.636H367.418V137.636H353.577V141.636ZM365.418 139.636V148.875H369.418V139.636H365.418ZM367.418 150.875H368.031V146.875H367.418V150.875ZM369.896 149.599C370.928 146.938 372.605 144.862 374.957 143.32L372.764 139.975C369.707 141.979 367.498 144.722 366.167 148.151L369.896 149.599ZM374.961 143.318C377.303 141.776 380.21 140.955 383.781 140.955V136.955C379.58 136.955 375.873 137.929 372.761 139.977L374.961 143.318ZM383.781 140.955C388.762 140.955 392.58 142.541 395.446 145.605L398.367 142.872C394.642 138.891 389.71 136.955 383.781 136.955V140.955ZM395.45 145.61C398.309 148.646 399.849 152.911 399.849 158.659H403.849C403.849 152.18 402.095 146.832 398.362 142.868L395.45 145.61ZM399.849 158.659V192H403.849V158.659H399.849ZM401.849 190H387.327V194H401.849V190ZM389.327 192V161.25H385.327V192H389.327ZM389.327 161.264C389.352 157.714 388.441 154.666 386.341 152.393L383.403 155.107C384.621 156.425 385.347 158.377 385.327 161.236L389.327 161.264ZM386.35 152.402C384.242 150.093 381.38 149.023 378.02 149.023V153.023C380.478 153.023 382.184 153.771 383.395 155.098L386.35 152.402ZM378.02 149.023C374.616 149.023 371.691 150.138 369.429 152.455L372.292 155.249C373.713 153.794 375.56 153.023 378.02 153.023V149.023ZM369.429 152.456C367.151 154.791 366.125 157.971 366.099 161.714L370.099 161.741C370.12 158.71 370.934 156.641 372.292 155.249L369.429 152.456ZM427.818 122.182H429.818V120.182H427.818V122.182ZM427.818 192V194H429.818V192H427.818ZM413.295 192H411.295V194H413.295V192ZM413.295 122.182V120.182H411.295V122.182H413.295ZM425.818 122.182V192H429.818V122.182H425.818ZM427.818 190H413.295V194H427.818V190ZM415.295 192V122.182H411.295V192H415.295ZM413.295 124.182H427.818V120.182H413.295V124.182ZM439.452 192H437.452V194H439.452V192ZM439.452 139.636V137.636H437.452V139.636H439.452ZM453.974 139.636H455.974V137.636H453.974V139.636ZM453.974 192V194H455.974V192H453.974ZM441.224 130.739L439.854 132.195L439.859 132.2L439.865 132.206L441.224 130.739ZM441.224 120.341L442.584 121.808L442.584 121.808L441.224 120.341ZM452.304 120.341L450.945 121.808L450.945 121.808L452.304 120.341ZM452.304 130.739L453.663 132.206L453.669 132.2L453.675 132.195L452.304 130.739ZM441.452 192V139.636H437.452V192H441.452ZM439.452 141.636H453.974V137.636H439.452V141.636ZM451.974 139.636V192H455.974V139.636H451.974ZM453.974 190H439.452V194H453.974V190ZM446.747 130.886C445.107 130.886 443.754 130.355 442.584 129.272L439.865 132.206C441.786 133.985 444.115 134.886 446.747 134.886V130.886ZM442.595 129.282C441.429 128.185 440.906 126.964 440.906 125.523H436.906C436.906 128.127 437.929 130.383 439.854 132.195L442.595 129.282ZM440.906 125.523C440.906 124.083 441.428 122.879 442.584 121.808L439.865 118.874C437.93 120.666 436.906 122.917 436.906 125.523H440.906ZM442.584 121.808C443.754 120.724 445.107 120.193 446.747 120.193V116.193C444.115 116.193 441.786 117.094 439.865 118.874L442.584 121.808ZM446.747 120.193C448.416 120.193 449.779 120.728 450.945 121.808L453.663 118.874C451.738 117.09 449.396 116.193 446.747 116.193V120.193ZM450.945 121.808C452.101 122.879 452.622 124.083 452.622 125.523H456.622C456.622 122.917 455.598 120.666 453.663 118.874L450.945 121.808ZM452.622 125.523C452.622 126.964 452.099 128.185 450.933 129.282L453.675 132.195C455.6 130.383 456.622 128.127 456.622 125.523H452.622ZM450.945 129.272C449.779 130.351 448.416 130.886 446.747 130.886V134.886C449.396 134.886 451.738 133.989 453.663 132.206L450.945 129.272ZM480.131 161.727L478.131 161.714V161.727H480.131ZM480.131 192V194H482.131V192H480.131ZM465.608 192H463.608V194H465.608V192ZM465.608 139.636V137.636H463.608V139.636H465.608ZM479.449 139.636H481.449V137.636H479.449V139.636ZM479.449 148.875H477.449V150.875H479.449V148.875ZM480.062 148.875V150.875H481.432L481.927 149.599L480.062 148.875ZM485.892 141.648L486.988 143.32L486.992 143.318L485.892 141.648ZM508.938 144.239L507.477 145.605L507.481 145.61L508.938 144.239ZM513.881 192V194H515.881V192H513.881ZM499.358 192H497.358V194H499.358V192ZM499.358 161.25L497.358 161.236L497.358 161.243V161.25H499.358ZM496.903 153.75L495.426 155.098L495.435 155.107L496.903 153.75ZM482.892 153.852L481.461 152.455L481.46 152.456L482.892 153.852ZM478.131 161.727V192H482.131V161.727H478.131ZM480.131 190H465.608V194H480.131V190ZM467.608 192V139.636H463.608V192H467.608ZM465.608 141.636H479.449V137.636H465.608V141.636ZM477.449 139.636V148.875H481.449V139.636H477.449ZM479.449 150.875H480.062V146.875H479.449V150.875ZM481.927 149.599C482.96 146.938 484.636 144.862 486.988 143.32L484.796 139.975C481.739 141.979 479.529 144.722 478.198 148.151L481.927 149.599ZM486.992 143.318C489.335 141.776 492.241 140.955 495.812 140.955V136.955C491.611 136.955 487.904 137.929 484.792 139.977L486.992 143.318ZM495.812 140.955C500.793 140.955 504.611 142.541 507.477 145.605L510.398 142.872C506.673 138.891 501.741 136.955 495.812 136.955V140.955ZM507.481 145.61C510.34 148.646 511.881 152.911 511.881 158.659H515.881C515.881 152.18 514.126 146.832 510.394 142.868L507.481 145.61ZM511.881 158.659V192H515.881V158.659H511.881ZM513.881 190H499.358V194H513.881V190ZM501.358 192V161.25H497.358V192H501.358ZM501.358 161.264C501.383 157.714 500.473 154.666 498.372 152.393L495.435 155.107C496.652 156.425 497.378 158.377 497.358 161.236L501.358 161.264ZM498.381 152.402C496.274 150.093 493.411 149.023 490.051 149.023V153.023C492.51 153.023 494.215 153.771 495.426 155.098L498.381 152.402ZM490.051 149.023C486.647 149.023 483.722 150.138 481.461 152.455L484.323 155.249C485.744 153.794 487.592 153.023 490.051 153.023V149.023ZM481.46 152.456C479.182 154.791 478.156 157.971 478.131 161.714L482.131 161.741C482.151 158.71 482.965 156.641 484.324 155.249L481.46 152.456ZM535.315 189.75L534.329 191.49L534.336 191.494L535.315 189.75ZM526.349 180.409L524.573 181.327L524.575 181.331L526.349 180.409ZM526.349 151.875L524.571 150.961L524.571 150.961L526.349 151.875ZM535.179 142.364L534.156 140.645L534.151 140.648L535.179 142.364ZM561.088 141.886L560.155 143.655L560.159 143.658L561.088 141.886ZM569.952 150.75L568.201 151.716L568.203 151.72L569.952 150.75ZM573.224 169.534V171.534H575.224V169.534H573.224ZM537.565 169.534V167.534H535.565V169.534H537.565ZM540.77 178.807L539.32 180.184L539.32 180.184L540.77 178.807ZM555.736 180.648L554.736 178.915L554.736 178.915L555.736 180.648ZM559.486 176.114L559.617 174.118L558.119 174.019L557.606 175.43L559.486 176.114ZM572.918 177L574.875 177.412L575.349 175.156L573.049 175.004L572.918 177ZM565.145 188.659L566.291 190.298L566.291 190.298L565.145 188.659ZM537.565 160.534L535.568 160.427L535.456 162.534H537.565V160.534ZM559.554 160.534V162.534H561.569L561.554 160.519L559.554 160.534ZM556.554 152.83L555.124 154.228L555.124 154.228L556.554 152.83ZM540.906 152.932L539.484 151.525L539.484 151.525L540.906 152.932ZM549.19 191.023C544.1 191.023 539.826 189.989 536.294 188.006L534.336 191.494C538.577 193.875 543.553 195.023 549.19 195.023V191.023ZM536.302 188.01C532.757 185.999 530.04 183.172 528.124 179.487L524.575 181.331C526.841 185.692 530.101 189.092 534.329 191.49L536.302 188.01ZM528.126 179.491C526.21 175.783 525.213 171.327 525.213 166.057H521.213C521.213 171.832 522.307 176.944 524.573 181.327L528.126 179.491ZM525.213 166.057C525.213 160.932 526.206 156.528 528.128 152.789L524.571 150.961C522.311 155.358 521.213 160.409 521.213 166.057H525.213ZM528.128 152.789C530.055 149.041 532.743 146.154 536.206 144.08L534.151 140.648C530.024 143.119 526.826 146.572 524.571 150.961L528.128 152.789ZM536.202 144.082C539.665 142.021 543.778 140.955 548.611 140.955V136.955C543.171 136.955 538.329 138.161 534.156 140.645L536.202 144.082ZM548.611 140.955C552.933 140.955 556.766 141.867 560.155 143.655L562.021 140.117C558.001 137.996 553.516 136.955 548.611 136.955V140.955ZM560.159 143.658C563.514 145.417 566.194 148.078 568.201 151.716L571.703 149.784C569.346 145.512 566.117 142.265 562.017 140.115L560.159 143.658ZM568.203 151.72C570.176 155.275 571.224 159.848 571.224 165.545H575.224C575.224 159.379 574.091 154.088 571.7 149.78L568.203 151.72ZM571.224 165.545V169.534H575.224V165.545H571.224ZM573.224 167.534H537.565V171.534H573.224V167.534ZM535.565 169.534V169.568H539.565V169.534H535.565ZM535.565 169.568C535.565 173.851 536.745 177.472 539.32 180.184L542.22 177.43C540.522 175.641 539.565 173.104 539.565 169.568H535.565ZM539.32 180.184C541.899 182.9 545.347 184.182 549.429 184.182V180.182C546.238 180.182 543.914 179.213 542.22 177.43L539.32 180.184ZM549.429 184.182C552.145 184.182 554.606 183.609 556.735 182.38L554.736 178.915C553.32 179.732 551.576 180.182 549.429 180.182V184.182ZM556.735 182.38C558.933 181.112 560.484 179.22 561.365 176.797L557.606 175.43C557.033 177.007 556.084 178.138 554.736 178.915L556.735 182.38ZM559.354 178.109L572.786 178.996L573.049 175.004L559.617 174.118L559.354 178.109ZM570.96 176.588C570.045 180.943 567.751 184.395 563.999 187.02L566.291 190.298C570.857 187.105 573.745 182.784 574.875 177.412L570.96 176.588ZM563.999 187.02C560.258 189.637 555.371 191.023 549.19 191.023V195.023C555.964 195.023 561.714 193.5 566.291 190.298L563.999 187.02ZM537.565 162.534H559.554V158.534H537.565V162.534ZM561.554 160.519C561.528 156.945 560.361 153.863 557.984 151.431L555.124 154.228C556.701 155.841 557.535 157.896 557.554 160.549L561.554 160.519ZM557.984 151.431C555.585 148.977 552.478 147.795 548.849 147.795V151.795C551.539 151.795 553.568 152.637 555.124 154.228L557.984 151.431ZM548.849 147.795C545.145 147.795 541.967 149.016 539.484 151.525L542.328 154.338C543.982 152.666 546.099 151.795 548.849 151.795V147.795ZM539.484 151.525C537.067 153.97 535.753 156.968 535.568 160.427L539.562 160.641C539.696 158.145 540.61 156.076 542.328 154.338L539.484 151.525Z" fill="white"/>
</svg>
