<svg width="166" height="19" viewBox="0 0 166 19" fill="none" xmlns="http://www.w3.org/2000/svg">
<path d="M0.113636 18V0.545454H2.22727V16.125H10.3409V18H0.113636ZM15.4311 18H13.2152L19.6243 0.545454H21.8061L28.2152 18H25.9993L24.2436 13.0568H17.1868L15.4311 18ZM17.8516 11.1818H23.5788L20.7834 3.30682H20.647L17.8516 11.1818ZM42.0455 6C41.6761 4.85227 41.0682 3.94602 40.2216 3.28125C39.3807 2.61648 38.3295 2.28409 37.0682 2.28409C36.0341 2.28409 35.0938 2.55114 34.2472 3.08523C33.4006 3.61932 32.7273 4.40625 32.2273 5.44602C31.7273 6.4858 31.4773 7.76136 31.4773 9.27273C31.4773 10.7841 31.7301 12.0597 32.2358 13.0994C32.7415 14.1392 33.4261 14.9261 34.2898 15.4602C35.1534 15.9943 36.125 16.2614 37.2045 16.2614C38.1875 16.2614 39.0568 16.054 39.8125 15.6392C40.5739 15.2187 41.1705 14.6278 41.6023 13.8665C42.0341 13.0994 42.2614 12.1932 42.2841 11.1477H37.6818V9.27273H44.3295V11.1477C44.3295 12.5852 44.0227 13.8352 43.4091 14.8977C42.8011 15.9602 41.9602 16.7841 40.8864 17.3693C39.8182 17.9489 38.5909 18.2386 37.2045 18.2386C35.6591 18.2386 34.3011 17.875 33.1307 17.1477C31.9659 16.4205 31.0568 15.3864 30.4034 14.0455C29.7557 12.7045 29.4318 11.1136 29.4318 9.27273C29.4318 7.43182 29.7557 5.84091 30.4034 4.5C31.0568 3.15909 31.9574 2.125 33.1051 1.39773C34.2585 0.670454 35.5795 0.306818 37.0682 0.306818C38.2955 0.306818 39.4091 0.548295 40.4091 1.03125C41.4091 1.50852 42.2415 2.17614 42.9062 3.03409C43.571 3.88636 44.0114 4.875 44.2273 6H42.0455ZM59.4041 0.545454H61.5178V12.1023C61.5178 13.2955 61.2365 14.3608 60.674 15.2983C60.1172 16.2301 59.3303 16.9659 58.3132 17.5057C57.2962 18.0398 56.103 18.3068 54.7337 18.3068C53.3643 18.3068 52.1712 18.0398 51.1541 17.5057C50.1371 16.9659 49.3473 16.2301 48.7848 15.2983C48.228 14.3608 47.9496 13.2955 47.9496 12.1023V0.545454H50.0632V11.9318C50.0632 13.2102 50.478 14.2642 51.3075 15.0938C52.1371 15.9176 53.2791 16.3295 54.7337 16.3295C56.1939 16.3295 57.3359 15.9176 58.1598 15.0938C58.9893 14.2642 59.4041 13.2102 59.4041 11.9318V0.545454ZM79.5795 0.545454V18H77.5341L68.0227 4.29545H67.8523V18H65.7386V0.545454H67.7841L77.3295 14.2841H77.5V0.545454H79.5795ZM84.5249 18H82.3089L88.718 0.545454H90.8999L97.3089 18H95.093L93.3374 13.0568H86.2805L84.5249 18ZM86.9453 11.1818H92.6726L89.8771 3.30682H89.7408L86.9453 11.1818Z" fill="url(#paint0_linear)"/>
<path d="M106.778 18V0.545454H108.891V16.125H117.005V18H106.778ZM122.095 18H119.879L126.288 0.545454H128.47L134.879 18H132.663L130.908 13.0568H123.851L122.095 18ZM124.516 11.1818H130.243L127.447 3.30682H127.311L124.516 11.1818ZM137.598 18V0.545454H143.7C144.916 0.545454 145.919 0.755682 146.709 1.17614C147.499 1.59091 148.087 2.15057 148.473 2.85511C148.859 3.55398 149.053 4.32954 149.053 5.18182C149.053 5.93182 148.919 6.55114 148.652 7.03977C148.391 7.52841 148.044 7.91477 147.612 8.19886C147.186 8.48295 146.723 8.69318 146.223 8.82955V9C146.757 9.03409 147.294 9.22159 147.834 9.5625C148.374 9.90341 148.825 10.392 149.189 11.0284C149.553 11.6648 149.734 12.4432 149.734 13.3636C149.734 14.2386 149.536 15.0256 149.138 15.7244C148.74 16.4233 148.112 16.9773 147.254 17.3864C146.396 17.7955 145.28 18 143.905 18H137.598ZM139.712 16.125H143.905C145.286 16.125 146.266 15.858 146.845 15.3239C147.43 14.7841 147.723 14.1307 147.723 13.3636C147.723 12.7727 147.572 12.2273 147.271 11.7273C146.97 11.2216 146.541 10.8182 145.984 10.517C145.428 10.2102 144.768 10.0568 144.007 10.0568H139.712V16.125ZM139.712 8.21591H143.632C144.587 8.21591 145.393 7.94034 146.053 7.3892C146.712 6.83807 147.041 6.10227 147.041 5.18182C147.041 4.41477 146.774 3.7642 146.24 3.23011C145.706 2.69034 144.859 2.42045 143.7 2.42045H139.712V8.21591ZM162.753 4.90909C162.651 4.04545 162.236 3.375 161.509 2.89773C160.781 2.42045 159.889 2.18182 158.832 2.18182C157.673 2.18182 156.741 2.45739 156.037 3.00852C155.332 3.55398 154.98 4.24432 154.98 5.07954C154.98 5.70455 155.17 6.21023 155.551 6.59659C155.938 6.97727 156.392 7.27557 156.915 7.49148C157.443 7.7017 157.923 7.86364 158.355 7.97727L160.128 8.45455C160.582 8.57386 161.088 8.73864 161.645 8.94886C162.207 9.15909 162.744 9.44602 163.256 9.80966C163.773 10.1676 164.199 10.6278 164.534 11.1903C164.869 11.7528 165.037 12.4432 165.037 13.2614C165.037 14.2045 164.79 15.0568 164.295 15.8182C163.807 16.5795 163.091 17.1847 162.148 17.6335C161.21 18.0824 160.071 18.3068 158.73 18.3068C156.855 18.3068 155.366 17.8636 154.264 16.9773C153.162 16.0909 152.56 14.9318 152.457 13.5H154.639C154.696 14.1591 154.918 14.7045 155.304 15.1364C155.696 15.5625 156.19 15.8807 156.787 16.0909C157.389 16.2955 158.037 16.3977 158.73 16.3977C159.537 16.3977 160.261 16.267 160.903 16.0057C161.545 15.7386 162.054 15.3693 162.429 14.8977C162.804 14.4205 162.991 13.8636 162.991 13.2273C162.991 12.6477 162.83 12.1761 162.506 11.8125C162.182 11.4489 161.756 11.1534 161.227 10.9261C160.699 10.6989 160.128 10.5 159.514 10.3295L157.366 9.71591C156.003 9.32386 154.923 8.7642 154.128 8.03693C153.332 7.30966 152.935 6.35795 152.935 5.18182C152.935 4.20454 153.199 3.35227 153.727 2.625C154.261 1.89205 154.977 1.32386 155.875 0.920454C156.778 0.511363 157.787 0.306818 158.901 0.306818C160.026 0.306818 161.026 0.508522 161.901 0.911931C162.776 1.30966 163.469 1.85511 163.98 2.54829C164.497 3.24148 164.77 4.02841 164.798 4.90909H162.753Z" fill="white"/>
<defs>
<linearGradient id="paint0_linear" x1="-2" y1="-5" x2="165.044" y2="32.6724" gradientUnits="userSpaceOnUse">
<stop stop-color="#5236FF"/>
<stop offset="1" stop-color="#C20560"/>
</linearGradient>
</defs>
</svg>
