<svg width="453" height="43" viewBox="0 0 453 43" fill="none" xmlns="http://www.w3.org/2000/svg">
<path d="M48.7193 0.796512C48.4536 0.318285 47.7097 0.105734 47.2315 0.424552L24.4891 13.5492L1.64052 0.15887C1.16229 -0.106812 0.47152 0.0526038 0.152702 0.530831C-0.00670663 0.796512 -0.00670905 1.06219 0.0464273 1.32788C0.0995636 1.59356 0.31211 1.85923 0.524655 1.9655L23.8515 15.6215C24.064 15.7278 24.2766 15.7809 24.436 15.7809C24.4891 15.7809 24.4891 15.7809 24.5423 15.7809C24.7548 15.7809 24.9142 15.7278 25.0736 15.6215L48.2942 2.17806C48.5599 2.01865 48.7193 1.8061 48.8256 1.54042C48.9318 1.32787 48.8787 1.00906 48.7193 0.796512Z" fill="#A8A8FF"/>
<path d="M48.7182 9.82923C48.4525 9.351 47.7086 9.13845 47.2304 9.45727L24.488 22.5819L1.63941 9.19158C1.16118 8.9259 0.470414 9.08532 0.151596 9.56355C-0.167222 10.0949 0.045322 10.7325 0.523549 11.0514L23.8504 24.7074C24.0629 24.8137 24.2755 24.8668 24.4349 24.8668C24.488 24.8668 24.488 24.8668 24.5412 24.8668C24.7537 24.8668 24.9131 24.8137 25.0725 24.7074L48.2931 11.317C48.5588 11.1576 48.7182 10.9451 48.7713 10.6794C48.9307 10.3606 48.8776 10.0418 48.7182 9.82923Z" fill="white"/>
<path d="M48.7182 18.8621C48.4525 18.3838 47.7617 18.1713 47.2304 18.4901L24.488 31.6148L1.63941 18.2244C1.16118 17.9587 0.470414 18.1182 0.151596 18.5964C-0.167222 19.1277 0.045322 19.7654 0.523549 20.0842L23.8504 33.7934C24.0629 33.8996 24.2755 33.9528 24.4349 33.9528C24.488 33.9528 24.488 33.9528 24.5412 33.9528C24.7537 33.9528 24.9131 33.8996 25.0725 33.7934L48.2931 20.3499C48.5588 20.1905 48.7182 19.9779 48.7713 19.7122C48.9307 19.3934 48.8776 19.0746 48.7182 18.8621Z" fill="white"/>
<path d="M48.7185 27.8959C48.4528 27.4177 47.762 27.2051 47.2307 27.524L24.4883 40.6486L1.69284 27.2051C1.21461 26.9395 0.523839 27.0989 0.205021 27.5771C0.0456118 27.8428 -0.00752698 28.1085 0.0987456 28.3741C0.151882 28.6398 0.364428 28.9055 0.576973 29.0118L23.8507 42.7209C24.0632 42.8272 24.2758 42.8803 24.4352 42.8803C24.4883 42.8803 24.4883 42.8803 24.5414 42.8803C24.754 42.8803 24.9134 42.8272 25.0728 42.7209L48.2934 29.2775C48.5591 29.1181 48.7185 28.9055 48.7716 28.6398C48.931 28.4273 48.8779 28.1616 48.7185 27.8959Z" fill="white"/>
<path d="M103.554 4.30414H88.3038V42.3497H84.0529V4.30414H68.8027V0.584595H103.607V4.30414H103.554Z" fill="#A8A8FF"/>
<path d="M143.565 42.3497H139.315V23.5395H114.341V42.3497H110.09V0.584595H114.341V19.9262H139.315V0.584595H143.565V42.3497Z" fill="#A8A8FF"/>
<path d="M178.741 22.5299H158.071V38.7365H181.929V42.3497H153.82V0.584595H181.77V4.30414H158.071V18.8635H178.741V22.5299Z" fill="#A8A8FF"/>
<path d="M223.642 22.4235C223.642 28.7467 221.888 33.7416 218.434 37.408C214.98 41.0744 210.411 42.9342 204.778 42.9342C199.146 42.9342 194.576 41.0744 191.069 37.408C187.562 33.6884 185.809 28.6405 185.809 22.2641V20.6169C185.809 16.5254 186.606 12.859 188.2 9.72394C189.794 6.5889 192.026 4.19776 194.895 2.4974C197.764 0.850171 201.059 0 204.778 0C210.517 0 215.087 1.85977 218.541 5.63245C221.994 9.35199 223.695 14.4531 223.695 20.8294V22.4235H223.642ZM214.98 20.5106C214.98 16.1534 214.077 12.8058 212.27 10.521C210.464 8.23612 207.966 7.06712 204.725 7.06712C201.537 7.06712 198.986 8.23612 197.18 10.521C195.373 12.8058 194.47 16.1534 194.47 20.5106V22.4235C194.47 26.6744 195.373 29.9689 197.233 32.36C199.093 34.7511 201.59 35.9202 204.831 35.9202C208.073 35.9202 210.57 34.7511 212.377 32.4131C214.13 30.0751 215.034 26.7276 215.034 22.3704V20.5106H214.98Z" fill="white"/>
<path d="M244.419 31.1911L245.109 33.9542L245.747 31.2443L256.162 0.584595H265.354L249.52 42.3497H240.699L224.865 0.584595H234.057L244.419 31.1911Z" fill="white"/>
<path d="M296.652 24.2834H278.639V35.3889H299.734V42.3497H269.925V0.584595H299.628V7.59858H278.639V17.2694H296.652V24.2834Z" fill="white"/>
<path d="M322.422 27.0996H314.452V42.3497H305.737V0.584595H322.103C327.311 0.584595 331.349 1.70045 334.218 3.87904C337.088 6.05763 338.522 9.19267 338.522 13.231C338.522 18.8635 335.812 22.7424 330.446 24.921L340.276 41.9778V42.3497H330.977L322.422 27.0996ZM314.452 20.1388H322.103C324.707 20.1388 326.62 19.5542 327.895 18.4384C329.17 17.3225 329.808 15.7816 329.808 13.9218C329.808 12.0089 329.17 10.4679 327.948 9.29895C326.673 8.12995 324.76 7.59858 322.103 7.59858H314.452V20.1388Z" fill="white"/>
<path d="M354.198 35.3889H374.071V42.3497H345.483V0.584595H354.198V35.3889Z" fill="white"/>
<path d="M406.856 33.4228H389.587L386.186 42.3497H377.419L394.316 0.584595H402.286L419.078 42.3497H410.257L406.856 33.4228ZM392.137 26.7808H404.359L398.248 10.9462L392.137 26.7808Z" fill="white"/>
<path d="M433.425 19.6074L443.095 0.584595H452.66L437.622 27.8435V42.3497H428.961V27.4184L414.189 0.584595H423.754L433.425 19.6074Z" fill="white"/>
</svg>
